<svg width="25" height="25" viewBox="0 0 25 25" fill="none" xmlns="http://www.w3.org/2000/svg">
<rect width="25" height="25" rx="12.5" fill="#FF0000" fill-opacity="0.84"/>
<path d="M8.49 19V17.83L13.62 12.34C14.004 11.92 14.28 11.548 14.448 11.224C14.616 10.888 14.7 10.48 14.7 10C14.7 9.28 14.472 8.698 14.016 8.254C13.572 7.798 12.99 7.57 12.27 7.57C11.586 7.57 11.01 7.822 10.542 8.326C10.074 8.83 9.84 9.478 9.84 10.27H8.4C8.4 9.094 8.76 8.128 9.48 7.372C10.212 6.604 11.142 6.22 12.27 6.22C13.398 6.22 14.322 6.574 15.042 7.282C15.774 7.978 16.14 8.884 16.14 10C16.14 10.696 16.014 11.29 15.762 11.782C15.51 12.262 15.126 12.778 14.61 13.33L10.56 17.56V17.65H16.41V19H8.49Z" fill="white"/>
</svg>
