<svg width="146" height="146" viewBox="0 0 146 146" fill="none" xmlns="http://www.w3.org/2000/svg">
<path d="M146 73C146 113.317 113.317 146 73 146C32.6832 146 0 113.317 0 73C0 32.6832 32.6832 0 73 0C113.317 0 146 32.6832 146 73ZM7.3 73C7.3 109.285 36.7149 138.7 73 138.7C109.285 138.7 138.7 109.285 138.7 73C138.7 36.7149 109.285 7.3 73 7.3C36.7149 7.3 7.3 36.7149 7.3 73Z" fill="#A915C8" fill-opacity="0.4"/>
<path d="M3.65 73C1.63416 73 -0.00951951 74.6353 0.0912269 76.6486C0.619688 87.2094 3.43729 97.5449 8.36593 106.933C13.2946 116.321 20.202 124.509 28.5948 130.941C30.1948 132.167 32.4742 131.743 33.6189 130.084C34.7636 128.424 34.3394 126.159 32.7462 124.924C25.3231 119.17 19.2084 111.881 14.8293 103.54C10.4503 95.1985 7.92288 86.0262 7.40136 76.6482C7.28943 74.6355 5.66584 73 3.65 73Z" fill="#F9585E"/>
</svg>
