<svg width="147" height="146" viewBox="0 0 147 146" fill="none" xmlns="http://www.w3.org/2000/svg">
<path d="M146.5 73C146.5 113.317 113.817 146 73.5 146C33.1832 146 0.5 113.317 0.5 73C0.5 32.6832 33.1832 0 73.5 0C113.817 0 146.5 32.6832 146.5 73ZM7.8 73C7.8 109.285 37.2149 138.7 73.5 138.7C109.785 138.7 139.2 109.285 139.2 73C139.2 36.7149 109.785 7.3 73.5 7.3C37.2149 7.3 7.8 36.7149 7.8 73Z" fill="#A915C8" fill-opacity="0.4"/>
<path d="M4.15 73C2.13416 73 0.49048 74.6353 0.591218 76.6486C1.22274 89.2699 5.12198 101.534 11.9349 112.227C19.4028 123.947 30.0611 133.293 42.6573 139.164C55.2535 145.036 69.264 147.19 83.0423 145.374C95.6122 143.716 107.512 138.817 117.585 131.185C119.191 129.968 119.387 127.658 118.091 126.114C116.795 124.57 114.498 124.378 112.885 125.586C103.882 132.329 93.2799 136.661 82.088 138.136C69.6876 139.771 57.0781 137.833 45.7416 132.548C34.405 127.263 24.8125 118.853 18.0914 108.304C12.0254 98.7837 8.52585 87.8789 7.90135 76.6482C7.78943 74.6355 6.16584 73 4.15 73Z" fill="#F9585E"/>
</svg>
