<svg width="147" height="146" viewBox="0 0 147 146" fill="none" xmlns="http://www.w3.org/2000/svg">
<path d="M146.5 73C146.5 113.317 113.817 146 73.5 146C33.1832 146 0.5 113.317 0.5 73C0.5 32.6832 33.1832 0 73.5 0C113.817 0 146.5 32.6832 146.5 73ZM7.8 73C7.8 109.285 37.2149 138.7 73.5 138.7C109.785 138.7 139.2 109.285 139.2 73C139.2 36.7149 109.785 7.3 73.5 7.3C37.2149 7.3 7.8 36.7149 7.8 73Z" fill="#A915C8" fill-opacity="0.4"/>
<path d="M4.15 73C2.13416 73 0.490479 74.6353 0.591218 76.6486C1.21138 89.043 4.98302 101.097 11.576 111.658C18.8144 123.253 29.1627 132.582 41.443 138.585C53.7233 144.587 67.4421 147.021 81.0378 145.61C94.6335 144.198 107.56 138.998 118.345 130.601C129.131 122.204 137.342 110.948 142.044 98.1135C146.747 85.2791 147.751 71.3822 144.943 58.005C142.136 44.6277 135.629 32.3075 126.163 22.4467C117.541 13.4652 106.78 6.85283 94.9164 3.21217C92.9893 2.62079 91.0008 3.81327 90.5065 5.76755C90.0121 7.72184 91.1996 9.69693 93.1234 10.299C103.663 13.5975 113.221 19.5068 120.896 27.5021C129.416 36.3767 135.272 47.465 137.799 59.5045C140.326 71.544 139.422 84.0512 135.19 95.6022C130.958 107.153 123.568 117.284 113.861 124.841C104.154 132.398 92.5201 137.079 80.284 138.349C68.0479 139.619 55.701 137.428 44.6487 132.026C33.5965 126.624 24.283 118.227 17.7684 107.792C11.8994 98.3906 8.51452 87.6749 7.90135 76.6482C7.78943 74.6355 6.16584 73 4.15 73Z" fill="#F9585E"/>
</svg>
