<svg width="354" height="140" viewBox="0 0 354 140" fill="none" xmlns="http://www.w3.org/2000/svg">
<path d="M59 8H353" stroke="#EAEAEA"/>
<path d="M59 34H353" stroke="#EAEAEA"/>
<path d="M59 60H353" stroke="#EAEAEA"/>
<path d="M59 86H353" stroke="#EAEAEA"/>
<path d="M59 112H353" stroke="#EAEAEA"/>
<path d="M61.45 137V129.3H59.35V128.32H61.03C61.31 128.32 61.45 128.18 61.45 127.9V127.2H62.57V137H61.45ZM64.1095 137L66.6295 134.48H66.5595C65.8875 134.48 65.3321 134.275 64.8935 133.864C64.4641 133.444 64.2495 132.903 64.2495 132.24C64.2495 131.577 64.4641 131.041 64.8935 130.63C65.3321 130.21 65.8875 130 66.5595 130H69.8495V137H68.7995V134.48H67.9595L65.4395 137H64.1095ZM66.5595 133.5H68.7995V130.98H66.5595C66.1955 130.98 65.8921 131.097 65.6495 131.33C65.4161 131.554 65.2995 131.857 65.2995 132.24C65.2995 132.623 65.4161 132.931 65.6495 133.164C65.8921 133.388 66.1955 133.5 66.5595 133.5ZM71.8062 137V130H72.8562V133.01H76.5662V130H77.6162V137H76.5662V133.99H72.8562V137H71.8062ZM79.5718 137V130H83.2118C83.8091 130 84.2851 130.177 84.6398 130.532C84.9945 130.887 85.1718 131.363 85.1718 131.96C85.1718 132.399 85.0318 132.777 84.7518 133.094C84.6211 133.234 84.4811 133.346 84.3318 133.43V133.5C84.4905 133.556 84.6538 133.663 84.8218 133.822C85.1485 134.149 85.3118 134.545 85.3118 135.012C85.3118 135.591 85.1251 136.067 84.7518 136.44C84.3785 136.813 83.9118 137 83.3518 137H79.5718ZM80.6218 136.09H83.2118C83.5011 136.09 83.7485 135.992 83.9538 135.796C84.1591 135.591 84.2618 135.329 84.2618 135.012C84.2618 134.685 84.1591 134.424 83.9538 134.228C83.7485 134.023 83.5011 133.92 83.2118 133.92H80.6218V136.09ZM80.6218 133.01H83.0718C83.3611 133.01 83.6085 132.912 83.8138 132.716C84.0191 132.52 84.1218 132.268 84.1218 131.96C84.1218 131.652 84.0191 131.4 83.8138 131.204C83.6085 131.008 83.3611 130.91 83.0718 130.91H80.6218V133.01Z" fill="#272727"/>
<path d="M100.937 137V136.09L104.927 131.82C105.226 131.493 105.44 131.204 105.571 130.952C105.702 130.691 105.767 130.373 105.767 130C105.767 129.44 105.59 128.987 105.235 128.642C104.89 128.287 104.437 128.11 103.877 128.11C103.345 128.11 102.897 128.306 102.533 128.698C102.169 129.09 101.987 129.594 101.987 130.21H100.867C100.867 129.295 101.147 128.544 101.707 127.956C102.276 127.359 103 127.06 103.877 127.06C104.754 127.06 105.473 127.335 106.033 127.886C106.602 128.427 106.887 129.132 106.887 130C106.887 130.541 106.789 131.003 106.593 131.386C106.397 131.759 106.098 132.161 105.697 132.59L102.547 135.88V135.95H107.097V137H100.937ZM108.079 137L110.599 134.48H110.529C109.857 134.48 109.302 134.275 108.863 133.864C108.434 133.444 108.219 132.903 108.219 132.24C108.219 131.577 108.434 131.041 108.863 130.63C109.302 130.21 109.857 130 110.529 130H113.819V137H112.769V134.48H111.929L109.409 137H108.079ZM110.529 133.5H112.769V130.98H110.529C110.165 130.98 109.862 131.097 109.619 131.33C109.386 131.554 109.269 131.857 109.269 132.24C109.269 132.623 109.386 132.931 109.619 133.164C109.862 133.388 110.165 133.5 110.529 133.5ZM115.776 137V130H116.826V133.01H120.536V130H121.586V137H120.536V133.99H116.826V137H115.776ZM123.542 137V130H127.182C127.779 130 128.255 130.177 128.61 130.532C128.964 130.887 129.142 131.363 129.142 131.96C129.142 132.399 129.002 132.777 128.722 133.094C128.591 133.234 128.451 133.346 128.302 133.43V133.5C128.46 133.556 128.624 133.663 128.792 133.822C129.118 134.149 129.282 134.545 129.282 135.012C129.282 135.591 129.095 136.067 128.722 136.44C128.348 136.813 127.882 137 127.322 137H123.542ZM124.592 136.09H127.182C127.471 136.09 127.718 135.992 127.924 135.796C128.129 135.591 128.232 135.329 128.232 135.012C128.232 134.685 128.129 134.424 127.924 134.228C127.718 134.023 127.471 133.92 127.182 133.92H124.592V136.09ZM124.592 133.01H127.042C127.331 133.01 127.578 132.912 127.784 132.716C127.989 132.52 128.092 132.268 128.092 131.96C128.092 131.652 127.989 131.4 127.784 131.204C127.578 131.008 127.331 130.91 127.042 130.91H124.592V133.01Z" fill="#272727"/>
<path d="M144.823 134.41H145.943C145.943 134.886 146.13 135.287 146.503 135.614C146.886 135.931 147.399 136.09 148.043 136.09C148.659 136.09 149.163 135.922 149.555 135.586C149.947 135.25 150.143 134.835 150.143 134.34C150.143 133.799 149.952 133.36 149.569 133.024C149.186 132.688 148.678 132.52 148.043 132.52H147.413V131.47H148.043C148.659 131.47 149.14 131.307 149.485 130.98C149.83 130.653 150.003 130.243 150.003 129.748C150.003 129.3 149.821 128.917 149.457 128.6C149.093 128.273 148.622 128.11 148.043 128.11C147.492 128.11 147.026 128.273 146.643 128.6C146.27 128.917 146.083 129.291 146.083 129.72H144.963C144.963 129.001 145.252 128.381 145.831 127.858C146.41 127.326 147.147 127.06 148.043 127.06C148.948 127.06 149.686 127.321 150.255 127.844C150.834 128.357 151.123 129.001 151.123 129.776C151.123 130.457 150.866 131.027 150.353 131.484C150.12 131.689 149.863 131.848 149.583 131.96V132.03C149.91 132.151 150.19 132.319 150.423 132.534C150.983 133.019 151.263 133.621 151.263 134.34C151.263 135.115 150.96 135.777 150.353 136.328C149.746 136.869 148.976 137.14 148.043 137.14C147.082 137.14 146.302 136.874 145.705 136.342C145.117 135.81 144.823 135.166 144.823 134.41ZM152.45 137L154.97 134.48H154.9C154.228 134.48 153.673 134.275 153.234 133.864C152.805 133.444 152.59 132.903 152.59 132.24C152.59 131.577 152.805 131.041 153.234 130.63C153.673 130.21 154.228 130 154.9 130H158.19V137H157.14V134.48H156.3L153.78 137H152.45ZM154.9 133.5H157.14V130.98H154.9C154.536 130.98 154.233 131.097 153.99 131.33C153.757 131.554 153.64 131.857 153.64 132.24C153.64 132.623 153.757 132.931 153.99 133.164C154.233 133.388 154.536 133.5 154.9 133.5ZM160.147 137V130H161.197V133.01H164.907V130H165.957V137H164.907V133.99H161.197V137H160.147ZM167.913 137V130H171.553C172.15 130 172.626 130.177 172.981 130.532C173.335 130.887 173.513 131.363 173.513 131.96C173.513 132.399 173.373 132.777 173.093 133.094C172.962 133.234 172.822 133.346 172.673 133.43V133.5C172.831 133.556 172.995 133.663 173.163 133.822C173.489 134.149 173.653 134.545 173.653 135.012C173.653 135.591 173.466 136.067 173.093 136.44C172.719 136.813 172.253 137 171.693 137H167.913ZM168.963 136.09H171.553C171.842 136.09 172.089 135.992 172.295 135.796C172.5 135.591 172.603 135.329 172.603 135.012C172.603 134.685 172.5 134.424 172.295 134.228C172.089 134.023 171.842 133.92 171.553 133.92H168.963V136.09ZM168.963 133.01H171.413C171.702 133.01 171.949 132.912 172.155 132.716C172.36 132.52 172.463 132.268 172.463 131.96C172.463 131.652 172.36 131.4 172.155 131.204C171.949 131.008 171.702 130.91 171.413 130.91H168.963V133.01Z" fill="#272727"/>
<path d="M188.78 134.76V133.92L192.63 127.2H194.45V133.78H195.71V134.76H194.45V137H193.33V134.76H188.78ZM190.18 133.78H193.33V128.67H193.05L190.18 133.71V133.78ZM196.481 137L199.001 134.48H198.931C198.259 134.48 197.703 134.275 197.265 133.864C196.835 133.444 196.621 132.903 196.621 132.24C196.621 131.577 196.835 131.041 197.265 130.63C197.703 130.21 198.259 130 198.931 130H202.221V137H201.171V134.48H200.331L197.811 137H196.481ZM198.931 133.5H201.171V130.98H198.931C198.567 130.98 198.263 131.097 198.021 131.33C197.787 131.554 197.671 131.857 197.671 132.24C197.671 132.623 197.787 132.931 198.021 133.164C198.263 133.388 198.567 133.5 198.931 133.5ZM204.177 137V130H205.227V133.01H208.937V130H209.987V137H208.937V133.99H205.227V137H204.177ZM211.943 137V130H215.583C216.18 130 216.656 130.177 217.011 130.532C217.366 130.887 217.543 131.363 217.543 131.96C217.543 132.399 217.403 132.777 217.123 133.094C216.992 133.234 216.852 133.346 216.703 133.43V133.5C216.862 133.556 217.025 133.663 217.193 133.822C217.52 134.149 217.683 134.545 217.683 135.012C217.683 135.591 217.496 136.067 217.123 136.44C216.75 136.813 216.283 137 215.723 137H211.943ZM212.993 136.09H215.583C215.872 136.09 216.12 135.992 216.325 135.796C216.53 135.591 216.633 135.329 216.633 135.012C216.633 134.685 216.53 134.424 216.325 134.228C216.12 134.023 215.872 133.92 215.583 133.92H212.993V136.09ZM212.993 133.01H215.443C215.732 133.01 215.98 132.912 216.185 132.716C216.39 132.52 216.493 132.268 216.493 131.96C216.493 131.652 216.39 131.4 216.185 131.204C215.98 131.008 215.732 130.91 215.443 130.91H212.993V133.01Z" fill="#272727"/>
<path d="M233.297 134.41H234.417C234.52 134.933 234.758 135.343 235.131 135.642C235.514 135.941 235.976 136.09 236.517 136.09C237.152 136.09 237.684 135.875 238.113 135.446C238.542 135.007 238.757 134.461 238.757 133.808C238.757 133.136 238.556 132.59 238.155 132.17C237.754 131.75 237.231 131.54 236.587 131.54C235.766 131.54 235.136 131.82 234.697 132.38H233.507L234.067 127.2H239.317V128.25H235.005L234.697 131.12H234.767C235.243 130.7 235.896 130.49 236.727 130.49C237.586 130.49 238.323 130.812 238.939 131.456C239.564 132.091 239.877 132.875 239.877 133.808C239.877 134.779 239.56 135.577 238.925 136.202C238.3 136.827 237.497 137.14 236.517 137.14C235.677 137.14 234.958 136.897 234.361 136.412C233.764 135.927 233.409 135.259 233.297 134.41ZM241.003 137L243.523 134.48H243.453C242.781 134.48 242.226 134.275 241.787 133.864C241.358 133.444 241.143 132.903 241.143 132.24C241.143 131.577 241.358 131.041 241.787 130.63C242.226 130.21 242.781 130 243.453 130H246.743V137H245.693V134.48H244.853L242.333 137H241.003ZM243.453 133.5H245.693V130.98H243.453C243.089 130.98 242.786 131.097 242.543 131.33C242.31 131.554 242.193 131.857 242.193 132.24C242.193 132.623 242.31 132.931 242.543 133.164C242.786 133.388 243.089 133.5 243.453 133.5ZM248.7 137V130H249.75V133.01H253.46V130H254.51V137H253.46V133.99H249.75V137H248.7ZM256.465 137V130H260.105C260.703 130 261.179 130.177 261.533 130.532C261.888 130.887 262.065 131.363 262.065 131.96C262.065 132.399 261.925 132.777 261.645 133.094C261.515 133.234 261.375 133.346 261.225 133.43V133.5C261.384 133.556 261.547 133.663 261.715 133.822C262.042 134.149 262.205 134.545 262.205 135.012C262.205 135.591 262.019 136.067 261.645 136.44C261.272 136.813 260.805 137 260.245 137H256.465ZM257.515 136.09H260.105C260.395 136.09 260.642 135.992 260.847 135.796C261.053 135.591 261.155 135.329 261.155 135.012C261.155 134.685 261.053 134.424 260.847 134.228C260.642 134.023 260.395 133.92 260.105 133.92H257.515V136.09ZM257.515 133.01H259.965C260.255 133.01 260.502 132.912 260.707 132.716C260.913 132.52 261.015 132.268 261.015 131.96C261.015 131.652 260.913 131.4 260.707 131.204C260.502 131.008 260.255 130.91 259.965 130.91H257.515V133.01Z" fill="#272727"/>
<path d="M278.953 131.96L282.033 127.2H283.293L280.983 130.84H281.053L281.319 130.77C281.506 130.723 281.72 130.7 281.963 130.7C282.85 130.7 283.596 130.999 284.203 131.596C284.81 132.193 285.113 132.945 285.113 133.85C285.113 134.765 284.786 135.544 284.133 136.188C283.489 136.823 282.696 137.14 281.753 137.14C280.81 137.14 280.012 136.823 279.359 136.188C278.715 135.544 278.393 134.765 278.393 133.85C278.393 133.169 278.58 132.539 278.953 131.96ZM280.157 135.446C280.586 135.875 281.118 136.09 281.753 136.09C282.388 136.09 282.92 135.875 283.349 135.446C283.778 135.007 283.993 134.475 283.993 133.85C283.993 133.225 283.778 132.697 283.349 132.268C282.92 131.829 282.388 131.61 281.753 131.61C281.118 131.61 280.586 131.829 280.157 132.268C279.728 132.697 279.513 133.225 279.513 133.85C279.513 134.475 279.728 135.007 280.157 135.446ZM286.087 137L288.607 134.48H288.537C287.865 134.48 287.31 134.275 286.871 133.864C286.442 133.444 286.227 132.903 286.227 132.24C286.227 131.577 286.442 131.041 286.871 130.63C287.31 130.21 287.865 130 288.537 130H291.827V137H290.777V134.48H289.937L287.417 137H286.087ZM288.537 133.5H290.777V130.98H288.537C288.173 130.98 287.87 131.097 287.627 131.33C287.394 131.554 287.277 131.857 287.277 132.24C287.277 132.623 287.394 132.931 287.627 133.164C287.87 133.388 288.173 133.5 288.537 133.5ZM293.784 137V130H294.834V133.01H298.544V130H299.594V137H298.544V133.99H294.834V137H293.784ZM301.549 137V130H305.189C305.787 130 306.263 130.177 306.617 130.532C306.972 130.887 307.149 131.363 307.149 131.96C307.149 132.399 307.009 132.777 306.729 133.094C306.599 133.234 306.459 133.346 306.309 133.43V133.5C306.468 133.556 306.631 133.663 306.799 133.822C307.126 134.149 307.289 134.545 307.289 135.012C307.289 135.591 307.103 136.067 306.729 136.44C306.356 136.813 305.889 137 305.329 137H301.549ZM302.599 136.09H305.189C305.479 136.09 305.726 135.992 305.931 135.796C306.137 135.591 306.239 135.329 306.239 135.012C306.239 134.685 306.137 134.424 305.931 134.228C305.726 134.023 305.479 133.92 305.189 133.92H302.599V136.09ZM302.599 133.01H305.049C305.339 133.01 305.586 132.912 305.791 132.716C305.997 132.52 306.099 132.268 306.099 131.96C306.099 131.652 305.997 131.4 305.791 131.204C305.586 131.008 305.339 130.91 305.049 130.91H302.599V133.01Z" fill="#272727"/>
<path d="M324.82 137L328.264 128.25H323.35V127.2H329.51V128.11L326.01 137H324.82ZM330.352 137L332.872 134.48H332.802C332.13 134.48 331.574 134.275 331.136 133.864C330.706 133.444 330.492 132.903 330.492 132.24C330.492 131.577 330.706 131.041 331.136 130.63C331.574 130.21 332.13 130 332.802 130H336.092V137H335.042V134.48H334.202L331.682 137H330.352ZM332.802 133.5H335.042V130.98H332.802C332.438 130.98 332.134 131.097 331.892 131.33C331.658 131.554 331.542 131.857 331.542 132.24C331.542 132.623 331.658 132.931 331.892 133.164C332.134 133.388 332.438 133.5 332.802 133.5ZM338.048 137V130H339.098V133.01H342.808V130H343.858V137H342.808V133.99H339.098V137H338.048ZM345.814 137V130H349.454C350.051 130 350.527 130.177 350.882 130.532C351.237 130.887 351.414 131.363 351.414 131.96C351.414 132.399 351.274 132.777 350.994 133.094C350.863 133.234 350.723 133.346 350.574 133.43V133.5C350.733 133.556 350.896 133.663 351.064 133.822C351.391 134.149 351.554 134.545 351.554 135.012C351.554 135.591 351.367 136.067 350.994 136.44C350.621 136.813 350.154 137 349.594 137H345.814ZM346.864 136.09H349.454C349.743 136.09 349.991 135.992 350.196 135.796C350.401 135.591 350.504 135.329 350.504 135.012C350.504 134.685 350.401 134.424 350.196 134.228C349.991 134.023 349.743 133.92 349.454 133.92H346.864V136.09ZM346.864 133.01H349.314C349.603 133.01 349.851 132.912 350.056 132.716C350.261 132.52 350.364 132.268 350.364 131.96C350.364 131.652 350.261 131.4 350.056 131.204C349.851 131.008 349.603 130.91 349.314 130.91H346.864V133.01Z" fill="#272727"/>
<path d="M2.38 13V6H0.35V4.25H1.96C2.24 4.25 2.38 4.11 2.38 3.83V3.2H4.2V13H2.38ZM8.344 10.55C8.77333 11.11 9.30533 11.39 9.94 11.39C10.5747 11.39 11.1067 11.11 11.536 10.55C11.9653 9.98067 12.18 9.164 12.18 8.1C12.18 7.036 11.9653 6.224 11.536 5.664C11.1067 5.09467 10.5747 4.81 9.94 4.81C9.30533 4.81 8.77333 5.09467 8.344 5.664C7.91467 6.224 7.7 7.036 7.7 8.1C7.7 9.164 7.91467 9.98067 8.344 10.55ZM7.042 4.418C7.81667 3.51267 8.78267 3.06 9.94 3.06C11.0973 3.06 12.0633 3.51267 12.838 4.418C13.6127 5.314 14 6.54133 14 8.1C14 9.65867 13.6127 10.8907 12.838 11.796C12.0633 12.692 11.0973 13.14 9.94 13.14C8.78267 13.14 7.81667 12.692 7.042 11.796C6.26733 10.8907 5.88 9.65867 5.88 8.1C5.88 6.54133 6.26733 5.314 7.042 4.418ZM17.7229 10.55C18.1522 11.11 18.6842 11.39 19.3189 11.39C19.9536 11.39 20.4856 11.11 20.9149 10.55C21.3442 9.98067 21.5589 9.164 21.5589 8.1C21.5589 7.036 21.3442 6.224 20.9149 5.664C20.4856 5.09467 19.9536 4.81 19.3189 4.81C18.6842 4.81 18.1522 5.09467 17.7229 5.664C17.2936 6.224 17.0789 7.036 17.0789 8.1C17.0789 9.164 17.2936 9.98067 17.7229 10.55ZM16.4209 4.418C17.1956 3.51267 18.1616 3.06 19.3189 3.06C20.4762 3.06 21.4422 3.51267 22.2169 4.418C22.9916 5.314 23.3789 6.54133 23.3789 8.1C23.3789 9.65867 22.9916 10.8907 22.2169 11.796C21.4422 12.692 20.4762 13.14 19.3189 13.14C18.1616 13.14 17.1956 12.692 16.4209 11.796C15.6462 10.8907 15.2589 9.65867 15.2589 8.1C15.2589 6.54133 15.6462 5.314 16.4209 4.418ZM27.1018 10.55C27.5311 11.11 28.0631 11.39 28.6978 11.39C29.3325 11.39 29.8645 11.11 30.2938 10.55C30.7231 9.98067 30.9378 9.164 30.9378 8.1C30.9378 7.036 30.7231 6.224 30.2938 5.664C29.8645 5.09467 29.3325 4.81 28.6978 4.81C28.0631 4.81 27.5311 5.09467 27.1018 5.664C26.6725 6.224 26.4578 7.036 26.4578 8.1C26.4578 9.164 26.6725 9.98067 27.1018 10.55ZM25.7998 4.418C26.5745 3.51267 27.5405 3.06 28.6978 3.06C29.8551 3.06 30.8211 3.51267 31.5958 4.418C32.3705 5.314 32.7578 6.54133 32.7578 8.1C32.7578 9.65867 32.3705 10.8907 31.5958 11.796C30.8211 12.692 29.8551 13.14 28.6978 13.14C27.5405 13.14 26.5745 12.692 25.7998 11.796C25.0251 10.8907 24.6378 9.65867 24.6378 8.1C24.6378 6.54133 25.0251 5.314 25.7998 4.418ZM36.4807 10.55C36.9101 11.11 37.4421 11.39 38.0767 11.39C38.7114 11.39 39.2434 11.11 39.6727 10.55C40.1021 9.98067 40.3167 9.164 40.3167 8.1C40.3167 7.036 40.1021 6.224 39.6727 5.664C39.2434 5.09467 38.7114 4.81 38.0767 4.81C37.4421 4.81 36.9101 5.09467 36.4807 5.664C36.0514 6.224 35.8367 7.036 35.8367 8.1C35.8367 9.164 36.0514 9.98067 36.4807 10.55ZM35.1787 4.418C35.9534 3.51267 36.9194 3.06 38.0767 3.06C39.2341 3.06 40.2001 3.51267 40.9747 4.418C41.7494 5.314 42.1367 6.54133 42.1367 8.1C42.1367 9.65867 41.7494 10.8907 40.9747 11.796C40.2001 12.692 39.2341 13.14 38.0767 13.14C36.9194 13.14 35.9534 12.692 35.1787 11.796C34.4041 10.8907 34.0167 9.65867 34.0167 8.1C34.0167 6.54133 34.4041 5.314 35.1787 4.418Z" fill="#787878"/>
<path d="M2.842 34.576C2.534 34.884 2.38 35.2853 2.38 35.78C2.38 36.2747 2.534 36.6807 2.842 36.998C3.15933 37.306 3.56533 37.46 4.06 37.46C4.55467 37.46 4.956 37.306 5.264 36.998C5.58133 36.6807 5.74 36.2747 5.74 35.78C5.74 35.2853 5.58133 34.884 5.264 34.576C4.956 34.2587 4.55467 34.1 4.06 34.1C3.56533 34.1 3.15933 34.2587 2.842 34.576ZM1.19 33.54L3.99 29.2H6.09L4.06 32.42H4.2C5.14267 32.42 5.936 32.7467 6.58 33.4C7.23333 34.044 7.56 34.8373 7.56 35.78C7.56 36.732 7.22867 37.53 6.566 38.174C5.90333 38.818 5.068 39.14 4.06 39.14C3.052 39.14 2.21667 38.818 1.554 38.174C0.891333 37.53 0.56 36.732 0.56 35.78C0.56 34.9307 0.77 34.184 1.19 33.54ZM11.2151 36.55C11.6444 37.11 12.1764 37.39 12.8111 37.39C13.4458 37.39 13.9778 37.11 14.4071 36.55C14.8364 35.9807 15.0511 35.164 15.0511 34.1C15.0511 33.036 14.8364 32.224 14.4071 31.664C13.9778 31.0947 13.4458 30.81 12.8111 30.81C12.1764 30.81 11.6444 31.0947 11.2151 31.664C10.7858 32.224 10.5711 33.036 10.5711 34.1C10.5711 35.164 10.7858 35.9807 11.2151 36.55ZM9.91309 30.418C10.6878 29.5127 11.6538 29.06 12.8111 29.06C13.9684 29.06 14.9344 29.5127 15.7091 30.418C16.4838 31.314 16.8711 32.5413 16.8711 34.1C16.8711 35.6587 16.4838 36.8907 15.7091 37.796C14.9344 38.692 13.9684 39.14 12.8111 39.14C11.6538 39.14 10.6878 38.692 9.91309 37.796C9.13843 36.8907 8.75109 35.6587 8.75109 34.1C8.75109 32.5413 9.13843 31.314 9.91309 30.418ZM20.594 36.55C21.0233 37.11 21.5553 37.39 22.19 37.39C22.8247 37.39 23.3567 37.11 23.786 36.55C24.2153 35.9807 24.43 35.164 24.43 34.1C24.43 33.036 24.2153 32.224 23.786 31.664C23.3567 31.0947 22.8247 30.81 22.19 30.81C21.5553 30.81 21.0233 31.0947 20.594 31.664C20.1647 32.224 19.95 33.036 19.95 34.1C19.95 35.164 20.1647 35.9807 20.594 36.55ZM19.292 30.418C20.0667 29.5127 21.0327 29.06 22.19 29.06C23.3473 29.06 24.3133 29.5127 25.088 30.418C25.8627 31.314 26.25 32.5413 26.25 34.1C26.25 35.6587 25.8627 36.8907 25.088 37.796C24.3133 38.692 23.3473 39.14 22.19 39.14C21.0327 39.14 20.0667 38.692 19.292 37.796C18.5173 36.8907 18.13 35.6587 18.13 34.1C18.13 32.5413 18.5173 31.314 19.292 30.418ZM29.9729 36.55C30.4022 37.11 30.9342 37.39 31.5689 37.39C32.2036 37.39 32.7356 37.11 33.1649 36.55C33.5942 35.9807 33.8089 35.164 33.8089 34.1C33.8089 33.036 33.5942 32.224 33.1649 31.664C32.7356 31.0947 32.2036 30.81 31.5689 30.81C30.9342 30.81 30.4022 31.0947 29.9729 31.664C29.5436 32.224 29.3289 33.036 29.3289 34.1C29.3289 35.164 29.5436 35.9807 29.9729 36.55ZM28.6709 30.418C29.4456 29.5127 30.4116 29.06 31.5689 29.06C32.7262 29.06 33.6922 29.5127 34.4669 30.418C35.2416 31.314 35.6289 32.5413 35.6289 34.1C35.6289 35.6587 35.2416 36.8907 34.4669 37.796C33.6922 38.692 32.7262 39.14 31.5689 39.14C30.4116 39.14 29.4456 38.692 28.6709 37.796C27.8962 36.8907 27.5089 35.6587 27.5089 34.1C27.5089 32.5413 27.8962 31.314 28.6709 30.418Z" fill="#787878"/>
<path d="M0.21 63.04V61.5L3.71 55.2H6.51V61.36H7.63V63.04H6.51V65H4.69V63.04H0.21ZM2.24 61.36H4.69V57.37H4.41L2.24 61.29V61.36ZM11.01 62.55C11.4393 63.11 11.9713 63.39 12.606 63.39C13.2407 63.39 13.7727 63.11 14.202 62.55C14.6313 61.9807 14.846 61.164 14.846 60.1C14.846 59.036 14.6313 58.224 14.202 57.664C13.7727 57.0947 13.2407 56.81 12.606 56.81C11.9713 56.81 11.4393 57.0947 11.01 57.664C10.5807 58.224 10.366 59.036 10.366 60.1C10.366 61.164 10.5807 61.9807 11.01 62.55ZM9.70802 56.418C10.4827 55.5127 11.4487 55.06 12.606 55.06C13.7633 55.06 14.7293 55.5127 15.504 56.418C16.2787 57.314 16.666 58.5413 16.666 60.1C16.666 61.6587 16.2787 62.8907 15.504 63.796C14.7293 64.692 13.7633 65.14 12.606 65.14C11.4487 65.14 10.4827 64.692 9.70802 63.796C8.93335 62.8907 8.54602 61.6587 8.54602 60.1C8.54602 58.5413 8.93335 57.314 9.70802 56.418ZM20.3889 62.55C20.8183 63.11 21.3503 63.39 21.9849 63.39C22.6196 63.39 23.1516 63.11 23.5809 62.55C24.0103 61.9807 24.2249 61.164 24.2249 60.1C24.2249 59.036 24.0103 58.224 23.5809 57.664C23.1516 57.0947 22.6196 56.81 21.9849 56.81C21.3503 56.81 20.8183 57.0947 20.3889 57.664C19.9596 58.224 19.7449 59.036 19.7449 60.1C19.7449 61.164 19.9596 61.9807 20.3889 62.55ZM19.0869 56.418C19.8616 55.5127 20.8276 55.06 21.9849 55.06C23.1423 55.06 24.1083 55.5127 24.8829 56.418C25.6576 57.314 26.0449 58.5413 26.0449 60.1C26.0449 61.6587 25.6576 62.8907 24.8829 63.796C24.1083 64.692 23.1423 65.14 21.9849 65.14C20.8276 65.14 19.8616 64.692 19.0869 63.796C18.3123 62.8907 17.9249 61.6587 17.9249 60.1C17.9249 58.5413 18.3123 57.314 19.0869 56.418ZM29.7678 62.55C30.1972 63.11 30.7292 63.39 31.3638 63.39C31.9985 63.39 32.5305 63.11 32.9598 62.55C33.3892 61.9807 33.6038 61.164 33.6038 60.1C33.6038 59.036 33.3892 58.224 32.9598 57.664C32.5305 57.0947 31.9985 56.81 31.3638 56.81C30.7292 56.81 30.1972 57.0947 29.7678 57.664C29.3385 58.224 29.1238 59.036 29.1238 60.1C29.1238 61.164 29.3385 61.9807 29.7678 62.55ZM28.4658 56.418C29.2405 55.5127 30.2065 55.06 31.3638 55.06C32.5212 55.06 33.4872 55.5127 34.2618 56.418C35.0365 57.314 35.4238 58.5413 35.4238 60.1C35.4238 61.6587 35.0365 62.8907 34.2618 63.796C33.4872 64.692 32.5212 65.14 31.3638 65.14C30.2065 65.14 29.2405 64.692 28.4658 63.796C27.6912 62.8907 27.3038 61.6587 27.3038 60.1C27.3038 58.5413 27.6912 57.314 28.4658 56.418Z" fill="#787878"/>
<path d="M0.77 91V89.39L4.76 85.54C4.90933 85.3907 5.01667 85.274 5.082 85.19C5.15667 85.0967 5.22667 84.966 5.292 84.798C5.35733 84.63 5.39 84.434 5.39 84.21C5.39 83.818 5.25933 83.4867 4.998 83.216C4.73667 82.9453 4.40067 82.81 3.99 82.81C3.56067 82.81 3.19667 82.9733 2.898 83.3C2.59933 83.6173 2.45 84.014 2.45 84.49H0.63C0.63 83.482 0.942667 82.6607 1.568 82.026C2.20267 81.382 3.01 81.06 3.99 81.06C4.98867 81.06 5.78667 81.354 6.384 81.942C6.98133 82.53 7.28 83.286 7.28 84.21C7.28 84.378 7.266 84.5413 7.238 84.7C7.21 84.8493 7.17733 84.98 7.14 85.092C7.112 85.204 7.056 85.3347 6.972 85.484C6.89733 85.624 6.83667 85.7313 6.79 85.806C6.74333 85.8713 6.65933 85.974 6.538 86.114C6.41667 86.254 6.33267 86.3473 6.286 86.394C6.24867 86.4313 6.15533 86.5247 6.006 86.674C5.85667 86.8233 5.768 86.912 5.74 86.94L3.43 89.18V89.25H7.42V91H0.77ZM11.0784 88.55C11.5077 89.11 12.0397 89.39 12.6744 89.39C13.309 89.39 13.841 89.11 14.2704 88.55C14.6997 87.9807 14.9144 87.164 14.9144 86.1C14.9144 85.036 14.6997 84.224 14.2704 83.664C13.841 83.0947 13.309 82.81 12.6744 82.81C12.0397 82.81 11.5077 83.0947 11.0784 83.664C10.649 84.224 10.4344 85.036 10.4344 86.1C10.4344 87.164 10.649 87.9807 11.0784 88.55ZM9.77638 82.418C10.551 81.5127 11.517 81.06 12.6744 81.06C13.8317 81.06 14.7977 81.5127 15.5724 82.418C16.347 83.314 16.7344 84.5413 16.7344 86.1C16.7344 87.6587 16.347 88.8907 15.5724 89.796C14.7977 90.692 13.8317 91.14 12.6744 91.14C11.517 91.14 10.551 90.692 9.77638 89.796C9.00171 88.8907 8.61438 87.6587 8.61438 86.1C8.61438 84.5413 9.00171 83.314 9.77638 82.418ZM20.4573 88.55C20.8866 89.11 21.4186 89.39 22.0533 89.39C22.6879 89.39 23.2199 89.11 23.6493 88.55C24.0786 87.9807 24.2933 87.164 24.2933 86.1C24.2933 85.036 24.0786 84.224 23.6493 83.664C23.2199 83.0947 22.6879 82.81 22.0533 82.81C21.4186 82.81 20.8866 83.0947 20.4573 83.664C20.0279 84.224 19.8133 85.036 19.8133 86.1C19.8133 87.164 20.0279 87.9807 20.4573 88.55ZM19.1553 82.418C19.9299 81.5127 20.8959 81.06 22.0533 81.06C23.2106 81.06 24.1766 81.5127 24.9513 82.418C25.7259 83.314 26.1133 84.5413 26.1133 86.1C26.1133 87.6587 25.7259 88.8907 24.9513 89.796C24.1766 90.692 23.2106 91.14 22.0533 91.14C20.8959 91.14 19.9299 90.692 19.1553 89.796C18.3806 88.8907 17.9933 87.6587 17.9933 86.1C17.9933 84.5413 18.3806 83.314 19.1553 82.418ZM29.8362 88.55C30.2655 89.11 30.7975 89.39 31.4322 89.39C32.0669 89.39 32.5989 89.11 33.0282 88.55C33.4575 87.9807 33.6722 87.164 33.6722 86.1C33.6722 85.036 33.4575 84.224 33.0282 83.664C32.5989 83.0947 32.0669 82.81 31.4322 82.81C30.7975 82.81 30.2655 83.0947 29.8362 83.664C29.4069 84.224 29.1922 85.036 29.1922 86.1C29.1922 87.164 29.4069 87.9807 29.8362 88.55ZM28.5342 82.418C29.3089 81.5127 30.2749 81.06 31.4322 81.06C32.5895 81.06 33.5555 81.5127 34.3302 82.418C35.1049 83.314 35.4922 84.5413 35.4922 86.1C35.4922 87.6587 35.1049 88.8907 34.3302 89.796C33.5555 90.692 32.5895 91.14 31.4322 91.14C30.2749 91.14 29.3089 90.692 28.5342 89.796C27.7595 88.8907 27.3722 87.6587 27.3722 86.1C27.3722 84.5413 27.7595 83.314 28.5342 82.418Z" fill="#787878"/>
<path d="M2.38 117V110H0.35V108.25H1.96C2.24 108.25 2.38 108.11 2.38 107.83V107.2H4.2V117H2.38ZM8.344 114.55C8.77333 115.11 9.30533 115.39 9.94 115.39C10.5747 115.39 11.1067 115.11 11.536 114.55C11.9653 113.981 12.18 113.164 12.18 112.1C12.18 111.036 11.9653 110.224 11.536 109.664C11.1067 109.095 10.5747 108.81 9.94 108.81C9.30533 108.81 8.77333 109.095 8.344 109.664C7.91467 110.224 7.7 111.036 7.7 112.1C7.7 113.164 7.91467 113.981 8.344 114.55ZM7.042 108.418C7.81667 107.513 8.78267 107.06 9.94 107.06C11.0973 107.06 12.0633 107.513 12.838 108.418C13.6127 109.314 14 110.541 14 112.1C14 113.659 13.6127 114.891 12.838 115.796C12.0633 116.692 11.0973 117.14 9.94 117.14C8.78267 117.14 7.81667 116.692 7.042 115.796C6.26733 114.891 5.88 113.659 5.88 112.1C5.88 110.541 6.26733 109.314 7.042 108.418ZM17.7229 114.55C18.1522 115.11 18.6842 115.39 19.3189 115.39C19.9536 115.39 20.4856 115.11 20.9149 114.55C21.3442 113.981 21.5589 113.164 21.5589 112.1C21.5589 111.036 21.3442 110.224 20.9149 109.664C20.4856 109.095 19.9536 108.81 19.3189 108.81C18.6842 108.81 18.1522 109.095 17.7229 109.664C17.2936 110.224 17.0789 111.036 17.0789 112.1C17.0789 113.164 17.2936 113.981 17.7229 114.55ZM16.4209 108.418C17.1956 107.513 18.1616 107.06 19.3189 107.06C20.4762 107.06 21.4422 107.513 22.2169 108.418C22.9916 109.314 23.3789 110.541 23.3789 112.1C23.3789 113.659 22.9916 114.891 22.2169 115.796C21.4422 116.692 20.4762 117.14 19.3189 117.14C18.1616 117.14 17.1956 116.692 16.4209 115.796C15.6462 114.891 15.2589 113.659 15.2589 112.1C15.2589 110.541 15.6462 109.314 16.4209 108.418ZM27.1018 114.55C27.5311 115.11 28.0631 115.39 28.6978 115.39C29.3325 115.39 29.8645 115.11 30.2938 114.55C30.7231 113.981 30.9378 113.164 30.9378 112.1C30.9378 111.036 30.7231 110.224 30.2938 109.664C29.8645 109.095 29.3325 108.81 28.6978 108.81C28.0631 108.81 27.5311 109.095 27.1018 109.664C26.6725 110.224 26.4578 111.036 26.4578 112.1C26.4578 113.164 26.6725 113.981 27.1018 114.55ZM25.7998 108.418C26.5745 107.513 27.5405 107.06 28.6978 107.06C29.8551 107.06 30.8211 107.513 31.5958 108.418C32.3705 109.314 32.7578 110.541 32.7578 112.1C32.7578 113.659 32.3705 114.891 31.5958 115.796C30.8211 116.692 29.8551 117.14 28.6978 117.14C27.5405 117.14 26.5745 116.692 25.7998 115.796C25.0251 114.891 24.6378 113.659 24.6378 112.1C24.6378 110.541 25.0251 109.314 25.7998 108.418Z" fill="#787878"/>
<path d="M59.5 112C64.8333 69.8333 78 -8.5 88 15.5C100.5 45.5 107 118.5 116.5 99.5C126 80.5 133.5 28.5 144.5 55C155.5 81.5 162 118.5 174.5 99.5C187 80.5 205 13 213.5 42C222 71 237.5 105.5 253.5 93.5C269.5 81.5 286.5 -23.9999 300.5 15.5C311.7 47.1 339.833 93 352.5 112" stroke="#DDA1E9" stroke-width="3"/>
<path d="M60 86.0001C69.5 65.0001 90.1 27.5001 96.5 45.5001C104.5 68.0001 113 124.5 133.5 100C154 75.5002 155 18.0002 169.5 30.5002C184 43.0002 196 100.5 207.5 102C219 103.5 228.5 33.0001 245.5 52.0001C262.5 71.0001 266 99.0001 285 97.0001C304 95.0001 324.5 73.0001 330.5 81.0001C335.3 87.4001 347.167 104.333 352.5 112" stroke="#F9585E" stroke-width="3"/>
<path d="M59.5 112C65.1667 100.833 78.4 78.9999 86 80.9999C95.5 83.4999 116 107.5 124 107.5C132 107.5 157.5 88.9999 184.5 94.9999C211.5 101 249 3.49987 262.5 35.9999C273.3 61.9999 327 97.4999 352.5 112" stroke="#A915C8" stroke-width="3"/>
</svg>
