<svg width="364" height="140" viewBox="0 0 364 140" fill="none" xmlns="http://www.w3.org/2000/svg">
<path d="M69 8H363" stroke="#EAEAEA"/>
<path d="M69 34H363" stroke="#EAEAEA"/>
<path d="M69 60H363" stroke="#EAEAEA"/>
<path d="M69 86H363" stroke="#EAEAEA"/>
<path d="M69 112H363" stroke="#EAEAEA"/>
<path d="M69.42 137L71.94 134.48H71.87C71.198 134.48 70.6427 134.275 70.204 133.864C69.7747 133.444 69.56 132.903 69.56 132.24C69.56 131.577 69.7747 131.041 70.204 130.63C70.6427 130.21 71.198 130 71.87 130H75.16V137H74.11V134.48H73.27L70.75 137H69.42ZM71.87 133.5H74.11V130.98H71.87C71.506 130.98 71.2027 131.097 70.96 131.33C70.7267 131.554 70.61 131.857 70.61 132.24C70.61 132.623 70.7267 132.931 70.96 133.164C71.2027 133.388 71.506 133.5 71.87 133.5ZM77.1167 137V130H78.1667V133.01H81.8767V130H82.9267V137H81.8767V133.99H78.1667V137H77.1167ZM84.8823 137V130H88.5223C89.1197 130 89.5957 130.177 89.9503 130.532C90.305 130.887 90.4823 131.363 90.4823 131.96C90.4823 132.399 90.3423 132.777 90.0623 133.094C89.9317 133.234 89.7917 133.346 89.6423 133.43V133.5C89.801 133.556 89.9643 133.663 90.1323 133.822C90.459 134.149 90.6223 134.545 90.6223 135.012C90.6223 135.591 90.4357 136.067 90.0623 136.44C89.689 136.813 89.2223 137 88.6623 137H84.8823ZM85.9323 136.09H88.5223C88.8117 136.09 89.059 135.992 89.2643 135.796C89.4697 135.591 89.5723 135.329 89.5723 135.012C89.5723 134.685 89.4697 134.424 89.2643 134.228C89.059 134.023 88.8117 133.92 88.5223 133.92H85.9323V136.09ZM85.9323 133.01H88.3823C88.6717 133.01 88.919 132.912 89.1243 132.716C89.3297 132.52 89.4323 132.268 89.4323 131.96C89.4323 131.652 89.3297 131.4 89.1243 131.204C88.919 131.008 88.6717 130.91 88.3823 130.91H85.9323V133.01Z" fill="#272727"/>
<path d="M113.673 139.8V137H113.463C112.38 137 111.512 136.678 110.859 136.034C110.215 135.39 109.893 134.545 109.893 133.5C109.893 132.455 110.215 131.61 110.859 130.966C111.512 130.322 112.38 130 113.463 130H113.673V127.2H114.723V130H114.933C116.016 130 116.879 130.322 117.523 130.966C118.176 131.61 118.503 132.455 118.503 133.5C118.503 134.545 118.176 135.39 117.523 136.034C116.879 136.678 116.016 137 114.933 137H114.723V139.8H113.673ZM113.463 136.02H113.673V130.98H113.463C112.66 130.98 112.04 131.204 111.601 131.652C111.162 132.1 110.943 132.716 110.943 133.5C110.943 134.284 111.162 134.9 111.601 135.348C112.04 135.796 112.66 136.02 113.463 136.02ZM114.723 136.02H114.933C115.736 136.02 116.356 135.796 116.795 135.348C117.234 134.9 117.453 134.284 117.453 133.5C117.453 132.716 117.234 132.1 116.795 131.652C116.356 131.204 115.736 130.98 114.933 130.98H114.723V136.02ZM124.877 135.04H125.997C125.755 135.712 125.372 136.23 124.849 136.594C124.336 136.958 123.715 137.14 122.987 137.14C122.026 137.14 121.223 136.804 120.579 136.132C119.945 135.451 119.627 134.573 119.627 133.5C119.627 132.427 119.945 131.554 120.579 130.882C121.223 130.201 122.026 129.86 122.987 129.86C123.911 129.86 124.677 130.177 125.283 130.812C125.899 131.447 126.207 132.249 126.207 133.22C126.207 133.369 126.193 133.57 126.165 133.822L126.137 133.99H120.677C120.752 134.643 121.004 135.171 121.433 135.572C121.872 135.964 122.39 136.16 122.987 136.16C123.407 136.16 123.781 136.062 124.107 135.866C124.443 135.67 124.7 135.395 124.877 135.04ZM120.677 133.01H125.157C125.12 132.375 124.896 131.857 124.485 131.456C124.084 131.045 123.585 130.84 122.987 130.84C122.362 130.84 121.839 131.041 121.419 131.442C120.999 131.843 120.752 132.366 120.677 133.01ZM127.745 137V130H131.385C131.982 130 132.458 130.177 132.813 130.532C133.167 130.887 133.345 131.363 133.345 131.96C133.345 132.399 133.205 132.777 132.925 133.094C132.794 133.234 132.654 133.346 132.505 133.43V133.5C132.663 133.556 132.827 133.663 132.995 133.822C133.321 134.149 133.485 134.545 133.485 135.012C133.485 135.591 133.298 136.067 132.925 136.44C132.551 136.813 132.085 137 131.525 137H127.745ZM128.795 136.09H131.385C131.674 136.09 131.921 135.992 132.127 135.796C132.332 135.591 132.435 135.329 132.435 135.012C132.435 134.685 132.332 134.424 132.127 134.228C131.921 134.023 131.674 133.92 131.385 133.92H128.795V136.09ZM128.795 133.01H131.245C131.534 133.01 131.781 132.912 131.987 132.716C132.192 132.52 132.295 132.268 132.295 131.96C132.295 131.652 132.192 131.4 131.987 131.204C131.781 131.008 131.534 130.91 131.245 130.91H128.795V133.01Z" fill="#272727"/>
<path d="M152.647 137V130H154.607L156.497 135.81H156.777L158.667 130H160.627V137H159.577V131.26H159.297L157.407 137H155.867L153.977 131.26H153.697V137H152.647ZM167.136 137L166.996 136.16H166.926C166.796 136.347 166.628 136.51 166.422 136.65C165.993 136.977 165.438 137.14 164.756 137.14C164.028 137.14 163.436 136.939 162.978 136.538C162.53 136.137 162.306 135.614 162.306 134.97C162.306 134.27 162.535 133.724 162.992 133.332C163.459 132.931 164.164 132.73 165.106 132.73H166.996V132.52C166.996 131.988 166.847 131.577 166.548 131.288C166.259 130.989 165.848 130.84 165.316 130.84C164.812 130.84 164.402 130.957 164.084 131.19C163.776 131.414 163.604 131.694 163.566 132.03H162.516C162.554 131.433 162.82 130.924 163.314 130.504C163.818 130.075 164.486 129.86 165.316 129.86C166.166 129.86 166.833 130.093 167.318 130.56C167.804 131.027 168.046 131.68 168.046 132.52V137H167.136ZM166.996 133.99V133.71H165.106C164.509 133.71 164.066 133.827 163.776 134.06C163.496 134.293 163.356 134.597 163.356 134.97C163.356 135.334 163.478 135.623 163.72 135.838C163.963 136.053 164.308 136.16 164.756 136.16C165.456 136.16 166.002 135.969 166.394 135.586C166.796 135.194 166.996 134.662 166.996 133.99ZM170.01 139.8V130H170.92L171.06 130.98H171.13C171.718 130.233 172.465 129.86 173.37 129.86C174.294 129.86 175.06 130.201 175.666 130.882C176.282 131.554 176.59 132.427 176.59 133.5C176.59 134.573 176.282 135.451 175.666 136.132C175.06 136.804 174.294 137.14 173.37 137.14C172.465 137.14 171.718 136.767 171.13 136.02H171.06V139.8H170.01ZM171.718 135.418C172.157 135.913 172.684 136.16 173.3 136.16C173.916 136.16 174.444 135.913 174.882 135.418C175.321 134.923 175.54 134.284 175.54 133.5C175.54 132.716 175.321 132.077 174.882 131.582C174.444 131.087 173.916 130.84 173.3 130.84C172.684 130.84 172.157 131.087 171.718 131.582C171.28 132.077 171.06 132.716 171.06 133.5C171.06 134.284 171.28 134.923 171.718 135.418Z" fill="#272727"/>
<path d="M200.53 137L200.39 136.16H200.32C200.189 136.347 200.021 136.51 199.816 136.65C199.387 136.977 198.831 137.14 198.15 137.14C197.422 137.14 196.829 136.939 196.372 136.538C195.924 136.137 195.7 135.614 195.7 134.97C195.7 134.27 195.929 133.724 196.386 133.332C196.853 132.931 197.557 132.73 198.5 132.73H200.39V132.52C200.39 131.988 200.241 131.577 199.942 131.288C199.653 130.989 199.242 130.84 198.71 130.84C198.206 130.84 197.795 130.957 197.478 131.19C197.17 131.414 196.997 131.694 196.96 132.03H195.91C195.947 131.433 196.213 130.924 196.708 130.504C197.212 130.075 197.879 129.86 198.71 129.86C199.559 129.86 200.227 130.093 200.712 130.56C201.197 131.027 201.44 131.68 201.44 132.52V137H200.53ZM200.39 133.99V133.71H198.5C197.903 133.71 197.459 133.827 197.17 134.06C196.89 134.293 196.75 134.597 196.75 134.97C196.75 135.334 196.871 135.623 197.114 135.838C197.357 136.053 197.702 136.16 198.15 136.16C198.85 136.16 199.396 135.969 199.788 135.586C200.189 135.194 200.39 134.662 200.39 133.99ZM203.404 137V130H209.214V137H208.164V130.98H204.454V137H203.404ZM211.169 139.8V130H212.079L212.219 130.98H212.289C212.877 130.233 213.624 129.86 214.529 129.86C215.453 129.86 216.219 130.201 216.825 130.882C217.441 131.554 217.749 132.427 217.749 133.5C217.749 134.573 217.441 135.451 216.825 136.132C216.219 136.804 215.453 137.14 214.529 137.14C213.624 137.14 212.877 136.767 212.289 136.02H212.219V139.8H211.169ZM212.877 135.418C213.316 135.913 213.843 136.16 214.459 136.16C215.075 136.16 215.603 135.913 216.041 135.418C216.48 134.923 216.699 134.284 216.699 133.5C216.699 132.716 216.48 132.077 216.041 131.582C215.603 131.087 215.075 130.84 214.459 130.84C213.843 130.84 213.316 131.087 212.877 131.582C212.439 132.077 212.219 132.716 212.219 133.5C212.219 134.284 212.439 134.923 212.877 135.418Z" fill="#272727"/>
<path d="M237.313 137V130H239.273L241.163 135.81H241.443L243.333 130H245.293V137H244.243V131.26H243.963L242.073 137H240.533L238.643 131.26H238.363V137H237.313ZM251.802 137L251.662 136.16H251.592C251.462 136.347 251.294 136.51 251.088 136.65C250.659 136.977 250.104 137.14 249.422 137.14C248.694 137.14 248.102 136.939 247.644 136.538C247.196 136.137 246.972 135.614 246.972 134.97C246.972 134.27 247.201 133.724 247.658 133.332C248.125 132.931 248.83 132.73 249.772 132.73H251.662V132.52C251.662 131.988 251.513 131.577 251.214 131.288C250.925 130.989 250.514 130.84 249.982 130.84C249.478 130.84 249.068 130.957 248.75 131.19C248.442 131.414 248.27 131.694 248.232 132.03H247.182C247.22 131.433 247.486 130.924 247.98 130.504C248.484 130.075 249.152 129.86 249.982 129.86C250.832 129.86 251.499 130.093 251.984 130.56C252.47 131.027 252.712 131.68 252.712 132.52V137H251.802ZM251.662 133.99V133.71H249.772C249.175 133.71 248.732 133.827 248.442 134.06C248.162 134.293 248.022 134.597 248.022 134.97C248.022 135.334 248.144 135.623 248.386 135.838C248.629 136.053 248.974 136.16 249.422 136.16C250.122 136.16 250.668 135.969 251.06 135.586C251.462 135.194 251.662 134.662 251.662 133.99ZM254.676 137V130H255.726V135.74H256.006L258.666 130H260.486V137H259.436V131.26H259.156L256.496 137H254.676ZM255.656 127.06H256.566C256.604 127.368 256.716 127.611 256.902 127.788C257.089 127.956 257.327 128.04 257.616 128.04C257.906 128.04 258.144 127.956 258.33 127.788C258.517 127.611 258.629 127.368 258.666 127.06H259.576C259.539 127.583 259.338 128.007 258.974 128.334C258.61 128.651 258.158 128.81 257.616 128.81C257.075 128.81 256.622 128.651 256.258 128.334C255.894 128.007 255.694 127.583 255.656 127.06Z" fill="#272727"/>
<path d="M280.647 137V130H281.697V135.74H281.977L284.637 130H286.457V137H285.407V131.26H285.127L282.467 137H280.647ZM288.413 137V130H289.463V133.01H290.513C290.625 132.058 290.975 131.297 291.563 130.728C292.16 130.149 292.883 129.86 293.733 129.86C294.657 129.86 295.422 130.201 296.029 130.882C296.645 131.554 296.953 132.427 296.953 133.5C296.953 134.573 296.645 135.451 296.029 136.132C295.422 136.804 294.657 137.14 293.733 137.14C292.883 137.14 292.16 136.855 291.563 136.286C290.975 135.707 290.625 134.942 290.513 133.99H289.463V137H288.413ZM292.193 135.418C292.613 135.913 293.126 136.16 293.733 136.16C294.339 136.16 294.853 135.913 295.273 135.418C295.693 134.923 295.903 134.284 295.903 133.5C295.903 132.716 295.693 132.077 295.273 131.582C294.853 131.087 294.339 130.84 293.733 130.84C293.126 130.84 292.613 131.087 292.193 131.582C291.773 132.077 291.563 132.716 291.563 133.5C291.563 134.284 291.773 134.923 292.193 135.418ZM298.489 137V130H299.539V133.01H303.249V130H304.299V137H303.249V133.99H299.539V137H298.489ZM306.254 137V130H307.304V132.38H309.474C310.174 132.38 310.744 132.599 311.182 133.038C311.63 133.467 311.854 134.018 311.854 134.69C311.854 135.362 311.63 135.917 311.182 136.356C310.744 136.785 310.174 137 309.474 137H306.254ZM307.304 136.02H309.474C309.866 136.02 310.184 135.899 310.426 135.656C310.678 135.404 310.804 135.082 310.804 134.69C310.804 134.298 310.678 133.981 310.426 133.738C310.184 133.486 309.866 133.36 309.474 133.36H307.304V136.02Z" fill="#272727"/>
<path d="M330.98 137V130H332.03V135.74H332.31L334.97 130H336.79V137H335.74V131.26H335.46L332.8 137H330.98ZM338.746 137V130H339.796V133.01H340.846C340.958 132.058 341.308 131.297 341.896 130.728C342.493 130.149 343.216 129.86 344.066 129.86C344.99 129.86 345.755 130.201 346.362 130.882C346.978 131.554 347.286 132.427 347.286 133.5C347.286 134.573 346.978 135.451 346.362 136.132C345.755 136.804 344.99 137.14 344.066 137.14C343.216 137.14 342.493 136.855 341.896 136.286C341.308 135.707 340.958 134.942 340.846 133.99H339.796V137H338.746ZM342.526 135.418C342.946 135.913 343.459 136.16 344.066 136.16C344.672 136.16 345.186 135.913 345.606 135.418C346.026 134.923 346.236 134.284 346.236 133.5C346.236 132.716 346.026 132.077 345.606 131.582C345.186 131.087 344.672 130.84 344.066 130.84C343.459 130.84 342.946 131.087 342.526 131.582C342.106 132.077 341.896 132.716 341.896 133.5C341.896 134.284 342.106 134.923 342.526 135.418ZM348.822 137V130H349.872V133.01H353.582V130H354.632V137H353.582V133.99H349.872V137H348.822ZM356.587 137V130H357.637V132.38H359.807C360.507 132.38 361.077 132.599 361.515 133.038C361.963 133.467 362.187 134.018 362.187 134.69C362.187 135.362 361.963 135.917 361.515 136.356C361.077 136.785 360.507 137 359.807 137H356.587ZM357.637 136.02H359.807C360.199 136.02 360.517 135.899 360.759 135.656C361.011 135.404 361.137 135.082 361.137 134.69C361.137 134.298 361.011 133.981 360.759 133.738C360.517 133.486 360.199 133.36 359.807 133.36H357.637V136.02Z" fill="#272727"/>
<path d="M2.38 13V6H0.35V4.25H1.96C2.24 4.25 2.38 4.11 2.38 3.83V3.2H4.2V13H2.38ZM8.344 10.55C8.77333 11.11 9.30533 11.39 9.94 11.39C10.5747 11.39 11.1067 11.11 11.536 10.55C11.9653 9.98067 12.18 9.164 12.18 8.1C12.18 7.036 11.9653 6.224 11.536 5.664C11.1067 5.09467 10.5747 4.81 9.94 4.81C9.30533 4.81 8.77333 5.09467 8.344 5.664C7.91467 6.224 7.7 7.036 7.7 8.1C7.7 9.164 7.91467 9.98067 8.344 10.55ZM7.042 4.418C7.81667 3.51267 8.78267 3.06 9.94 3.06C11.0973 3.06 12.0633 3.51267 12.838 4.418C13.6127 5.314 14 6.54133 14 8.1C14 9.65867 13.6127 10.8907 12.838 11.796C12.0633 12.692 11.0973 13.14 9.94 13.14C8.78267 13.14 7.81667 12.692 7.042 11.796C6.26733 10.8907 5.88 9.65867 5.88 8.1C5.88 6.54133 6.26733 5.314 7.042 4.418ZM17.7229 10.55C18.1522 11.11 18.6842 11.39 19.3189 11.39C19.9536 11.39 20.4856 11.11 20.9149 10.55C21.3442 9.98067 21.5589 9.164 21.5589 8.1C21.5589 7.036 21.3442 6.224 20.9149 5.664C20.4856 5.09467 19.9536 4.81 19.3189 4.81C18.6842 4.81 18.1522 5.09467 17.7229 5.664C17.2936 6.224 17.0789 7.036 17.0789 8.1C17.0789 9.164 17.2936 9.98067 17.7229 10.55ZM16.4209 4.418C17.1956 3.51267 18.1616 3.06 19.3189 3.06C20.4762 3.06 21.4422 3.51267 22.2169 4.418C22.9916 5.314 23.3789 6.54133 23.3789 8.1C23.3789 9.65867 22.9916 10.8907 22.2169 11.796C21.4422 12.692 20.4762 13.14 19.3189 13.14C18.1616 13.14 17.1956 12.692 16.4209 11.796C15.6462 10.8907 15.2589 9.65867 15.2589 8.1C15.2589 6.54133 15.6462 5.314 16.4209 4.418ZM27.1018 10.55C27.5311 11.11 28.0631 11.39 28.6978 11.39C29.3325 11.39 29.8645 11.11 30.2938 10.55C30.7231 9.98067 30.9378 9.164 30.9378 8.1C30.9378 7.036 30.7231 6.224 30.2938 5.664C29.8645 5.09467 29.3325 4.81 28.6978 4.81C28.0631 4.81 27.5311 5.09467 27.1018 5.664C26.6725 6.224 26.4578 7.036 26.4578 8.1C26.4578 9.164 26.6725 9.98067 27.1018 10.55ZM25.7998 4.418C26.5745 3.51267 27.5405 3.06 28.6978 3.06C29.8551 3.06 30.8211 3.51267 31.5958 4.418C32.3705 5.314 32.7578 6.54133 32.7578 8.1C32.7578 9.65867 32.3705 10.8907 31.5958 11.796C30.8211 12.692 29.8551 13.14 28.6978 13.14C27.5405 13.14 26.5745 12.692 25.7998 11.796C25.0251 10.8907 24.6378 9.65867 24.6378 8.1C24.6378 6.54133 25.0251 5.314 25.7998 4.418ZM36.4807 10.55C36.9101 11.11 37.4421 11.39 38.0767 11.39C38.7114 11.39 39.2434 11.11 39.6727 10.55C40.1021 9.98067 40.3167 9.164 40.3167 8.1C40.3167 7.036 40.1021 6.224 39.6727 5.664C39.2434 5.09467 38.7114 4.81 38.0767 4.81C37.4421 4.81 36.9101 5.09467 36.4807 5.664C36.0514 6.224 35.8367 7.036 35.8367 8.1C35.8367 9.164 36.0514 9.98067 36.4807 10.55ZM35.1787 4.418C35.9534 3.51267 36.9194 3.06 38.0767 3.06C39.2341 3.06 40.2001 3.51267 40.9747 4.418C41.7494 5.314 42.1367 6.54133 42.1367 8.1C42.1367 9.65867 41.7494 10.8907 40.9747 11.796C40.2001 12.692 39.2341 13.14 38.0767 13.14C36.9194 13.14 35.9534 12.692 35.1787 11.796C34.4041 10.8907 34.0167 9.65867 34.0167 8.1C34.0167 6.54133 34.4041 5.314 35.1787 4.418ZM45.8596 10.55C46.289 11.11 46.821 11.39 47.4556 11.39C48.0903 11.39 48.6223 11.11 49.0516 10.55C49.481 9.98067 49.6956 9.164 49.6956 8.1C49.6956 7.036 49.481 6.224 49.0516 5.664C48.6223 5.09467 48.0903 4.81 47.4556 4.81C46.821 4.81 46.289 5.09467 45.8596 5.664C45.4303 6.224 45.2156 7.036 45.2156 8.1C45.2156 9.164 45.4303 9.98067 45.8596 10.55ZM44.5576 4.418C45.3323 3.51267 46.2983 3.06 47.4556 3.06C48.613 3.06 49.579 3.51267 50.3536 4.418C51.1283 5.314 51.5156 6.54133 51.5156 8.1C51.5156 9.65867 51.1283 10.8907 50.3536 11.796C49.579 12.692 48.613 13.14 47.4556 13.14C46.2983 13.14 45.3323 12.692 44.5576 11.796C43.783 10.8907 43.3956 9.65867 43.3956 8.1C43.3956 6.54133 43.783 5.314 44.5576 4.418Z" fill="#787878"/>
<path d="M2.842 34.576C2.534 34.884 2.38 35.2853 2.38 35.78C2.38 36.2747 2.534 36.6807 2.842 36.998C3.15933 37.306 3.56533 37.46 4.06 37.46C4.55467 37.46 4.956 37.306 5.264 36.998C5.58133 36.6807 5.74 36.2747 5.74 35.78C5.74 35.2853 5.58133 34.884 5.264 34.576C4.956 34.2587 4.55467 34.1 4.06 34.1C3.56533 34.1 3.15933 34.2587 2.842 34.576ZM1.19 33.54L3.99 29.2H6.09L4.06 32.42H4.2C5.14267 32.42 5.936 32.7467 6.58 33.4C7.23333 34.044 7.56 34.8373 7.56 35.78C7.56 36.732 7.22867 37.53 6.566 38.174C5.90333 38.818 5.068 39.14 4.06 39.14C3.052 39.14 2.21667 38.818 1.554 38.174C0.891333 37.53 0.56 36.732 0.56 35.78C0.56 34.9307 0.77 34.184 1.19 33.54ZM11.2151 36.55C11.6444 37.11 12.1764 37.39 12.8111 37.39C13.4458 37.39 13.9778 37.11 14.4071 36.55C14.8364 35.9807 15.0511 35.164 15.0511 34.1C15.0511 33.036 14.8364 32.224 14.4071 31.664C13.9778 31.0947 13.4458 30.81 12.8111 30.81C12.1764 30.81 11.6444 31.0947 11.2151 31.664C10.7858 32.224 10.5711 33.036 10.5711 34.1C10.5711 35.164 10.7858 35.9807 11.2151 36.55ZM9.91309 30.418C10.6878 29.5127 11.6538 29.06 12.8111 29.06C13.9684 29.06 14.9344 29.5127 15.7091 30.418C16.4838 31.314 16.8711 32.5413 16.8711 34.1C16.8711 35.6587 16.4838 36.8907 15.7091 37.796C14.9344 38.692 13.9684 39.14 12.8111 39.14C11.6538 39.14 10.6878 38.692 9.91309 37.796C9.13843 36.8907 8.75109 35.6587 8.75109 34.1C8.75109 32.5413 9.13843 31.314 9.91309 30.418ZM20.594 36.55C21.0233 37.11 21.5553 37.39 22.19 37.39C22.8247 37.39 23.3567 37.11 23.786 36.55C24.2153 35.9807 24.43 35.164 24.43 34.1C24.43 33.036 24.2153 32.224 23.786 31.664C23.3567 31.0947 22.8247 30.81 22.19 30.81C21.5553 30.81 21.0233 31.0947 20.594 31.664C20.1647 32.224 19.95 33.036 19.95 34.1C19.95 35.164 20.1647 35.9807 20.594 36.55ZM19.292 30.418C20.0667 29.5127 21.0327 29.06 22.19 29.06C23.3473 29.06 24.3133 29.5127 25.088 30.418C25.8627 31.314 26.25 32.5413 26.25 34.1C26.25 35.6587 25.8627 36.8907 25.088 37.796C24.3133 38.692 23.3473 39.14 22.19 39.14C21.0327 39.14 20.0667 38.692 19.292 37.796C18.5173 36.8907 18.13 35.6587 18.13 34.1C18.13 32.5413 18.5173 31.314 19.292 30.418ZM29.9729 36.55C30.4022 37.11 30.9342 37.39 31.5689 37.39C32.2036 37.39 32.7356 37.11 33.1649 36.55C33.5942 35.9807 33.8089 35.164 33.8089 34.1C33.8089 33.036 33.5942 32.224 33.1649 31.664C32.7356 31.0947 32.2036 30.81 31.5689 30.81C30.9342 30.81 30.4022 31.0947 29.9729 31.664C29.5436 32.224 29.3289 33.036 29.3289 34.1C29.3289 35.164 29.5436 35.9807 29.9729 36.55ZM28.6709 30.418C29.4456 29.5127 30.4116 29.06 31.5689 29.06C32.7262 29.06 33.6922 29.5127 34.4669 30.418C35.2416 31.314 35.6289 32.5413 35.6289 34.1C35.6289 35.6587 35.2416 36.8907 34.4669 37.796C33.6922 38.692 32.7262 39.14 31.5689 39.14C30.4116 39.14 29.4456 38.692 28.6709 37.796C27.8962 36.8907 27.5089 35.6587 27.5089 34.1C27.5089 32.5413 27.8962 31.314 28.6709 30.418ZM39.3518 36.55C39.7811 37.11 40.3131 37.39 40.9478 37.39C41.5825 37.39 42.1145 37.11 42.5438 36.55C42.9731 35.9807 43.1878 35.164 43.1878 34.1C43.1878 33.036 42.9731 32.224 42.5438 31.664C42.1145 31.0947 41.5825 30.81 40.9478 30.81C40.3131 30.81 39.7811 31.0947 39.3518 31.664C38.9225 32.224 38.7078 33.036 38.7078 34.1C38.7078 35.164 38.9225 35.9807 39.3518 36.55ZM38.0498 30.418C38.8245 29.5127 39.7905 29.06 40.9478 29.06C42.1051 29.06 43.0711 29.5127 43.8458 30.418C44.6205 31.314 45.0078 32.5413 45.0078 34.1C45.0078 35.6587 44.6205 36.8907 43.8458 37.796C43.0711 38.692 42.1051 39.14 40.9478 39.14C39.7905 39.14 38.8245 38.692 38.0498 37.796C37.2751 36.8907 36.8878 35.6587 36.8878 34.1C36.8878 32.5413 37.2751 31.314 38.0498 30.418Z" fill="#787878"/>
<path d="M0.63 62.2H2.45C2.49667 62.4987 2.66 62.774 2.94 63.026C3.22 63.2687 3.61667 63.39 4.13 63.39C4.662 63.39 5.07267 63.25 5.362 62.97C5.66067 62.6807 5.81 62.284 5.81 61.78C5.81 61.3133 5.66067 60.9307 5.362 60.632C5.06333 60.324 4.65267 60.17 4.13 60.17C3.75667 60.17 3.43933 60.24 3.178 60.38C2.926 60.5107 2.75333 60.6507 2.66 60.8H0.798L1.358 55.2H7.07V56.95H2.94L2.73 58.84H2.8C3.136 58.6067 3.64933 58.49 4.34 58.49C5.292 58.49 6.076 58.8027 6.692 59.428C7.31733 60.044 7.63 60.828 7.63 61.78C7.63 62.7693 7.30333 63.5767 6.65 64.202C6.006 64.8273 5.166 65.14 4.13 65.14C3.53267 65.14 3.00067 65.0513 2.534 64.874C2.07667 64.6873 1.71733 64.4447 1.456 64.146C1.19467 63.8473 0.994 63.5347 0.854 63.208C0.723333 62.8813 0.648667 62.5453 0.63 62.2ZM11.2835 62.55C11.7128 63.11 12.2448 63.39 12.8795 63.39C13.5141 63.39 14.0461 63.11 14.4755 62.55C14.9048 61.9807 15.1195 61.164 15.1195 60.1C15.1195 59.036 14.9048 58.224 14.4755 57.664C14.0461 57.0947 13.5141 56.81 12.8795 56.81C12.2448 56.81 11.7128 57.0947 11.2835 57.664C10.8541 58.224 10.6395 59.036 10.6395 60.1C10.6395 61.164 10.8541 61.9807 11.2835 62.55ZM9.98145 56.418C10.7561 55.5127 11.7221 55.06 12.8795 55.06C14.0368 55.06 15.0028 55.5127 15.7775 56.418C16.5521 57.314 16.9395 58.5413 16.9395 60.1C16.9395 61.6587 16.5521 62.8907 15.7775 63.796C15.0028 64.692 14.0368 65.14 12.8795 65.14C11.7221 65.14 10.7561 64.692 9.98145 63.796C9.20679 62.8907 8.81945 61.6587 8.81945 60.1C8.81945 58.5413 9.20679 57.314 9.98145 56.418ZM20.6624 62.55C21.0917 63.11 21.6237 63.39 22.2584 63.39C22.893 63.39 23.425 63.11 23.8544 62.55C24.2837 61.9807 24.4984 61.164 24.4984 60.1C24.4984 59.036 24.2837 58.224 23.8544 57.664C23.425 57.0947 22.893 56.81 22.2584 56.81C21.6237 56.81 21.0917 57.0947 20.6624 57.664C20.233 58.224 20.0184 59.036 20.0184 60.1C20.0184 61.164 20.233 61.9807 20.6624 62.55ZM19.3604 56.418C20.135 55.5127 21.101 55.06 22.2584 55.06C23.4157 55.06 24.3817 55.5127 25.1564 56.418C25.931 57.314 26.3184 58.5413 26.3184 60.1C26.3184 61.6587 25.931 62.8907 25.1564 63.796C24.3817 64.692 23.4157 65.14 22.2584 65.14C21.101 65.14 20.135 64.692 19.3604 63.796C18.5857 62.8907 18.1984 61.6587 18.1984 60.1C18.1984 58.5413 18.5857 57.314 19.3604 56.418ZM30.0413 62.55C30.4706 63.11 31.0026 63.39 31.6373 63.39C32.2719 63.39 32.8039 63.11 33.2333 62.55C33.6626 61.9807 33.8773 61.164 33.8773 60.1C33.8773 59.036 33.6626 58.224 33.2333 57.664C32.8039 57.0947 32.2719 56.81 31.6373 56.81C31.0026 56.81 30.4706 57.0947 30.0413 57.664C29.6119 58.224 29.3973 59.036 29.3973 60.1C29.3973 61.164 29.6119 61.9807 30.0413 62.55ZM28.7393 56.418C29.5139 55.5127 30.4799 55.06 31.6373 55.06C32.7946 55.06 33.7606 55.5127 34.5353 56.418C35.3099 57.314 35.6973 58.5413 35.6973 60.1C35.6973 61.6587 35.3099 62.8907 34.5353 63.796C33.7606 64.692 32.7946 65.14 31.6373 65.14C30.4799 65.14 29.5139 64.692 28.7393 63.796C27.9646 62.8907 27.5773 61.6587 27.5773 60.1C27.5773 58.5413 27.9646 57.314 28.7393 56.418ZM39.4202 62.55C39.8495 63.11 40.3815 63.39 41.0162 63.39C41.6508 63.39 42.1828 63.11 42.6122 62.55C43.0415 61.9807 43.2562 61.164 43.2562 60.1C43.2562 59.036 43.0415 58.224 42.6122 57.664C42.1828 57.0947 41.6508 56.81 41.0162 56.81C40.3815 56.81 39.8495 57.0947 39.4202 57.664C38.9908 58.224 38.7762 59.036 38.7762 60.1C38.7762 61.164 38.9908 61.9807 39.4202 62.55ZM38.1182 56.418C38.8928 55.5127 39.8588 55.06 41.0162 55.06C42.1735 55.06 43.1395 55.5127 43.9142 56.418C44.6888 57.314 45.0762 58.5413 45.0762 60.1C45.0762 61.6587 44.6888 62.8907 43.9142 63.796C43.1395 64.692 42.1735 65.14 41.0162 65.14C39.8588 65.14 38.8928 64.692 38.1182 63.796C37.3435 62.8907 36.9562 61.6587 36.9562 60.1C36.9562 58.5413 37.3435 57.314 38.1182 56.418Z" fill="#787878"/>
<path d="M0.77 91V89.39L4.76 85.54C4.90933 85.3907 5.01667 85.274 5.082 85.19C5.15667 85.0967 5.22667 84.966 5.292 84.798C5.35733 84.63 5.39 84.434 5.39 84.21C5.39 83.818 5.25933 83.4867 4.998 83.216C4.73667 82.9453 4.40067 82.81 3.99 82.81C3.56067 82.81 3.19667 82.9733 2.898 83.3C2.59933 83.6173 2.45 84.014 2.45 84.49H0.63C0.63 83.482 0.942667 82.6607 1.568 82.026C2.20267 81.382 3.01 81.06 3.99 81.06C4.98867 81.06 5.78667 81.354 6.384 81.942C6.98133 82.53 7.28 83.286 7.28 84.21C7.28 84.378 7.266 84.5413 7.238 84.7C7.21 84.8493 7.17733 84.98 7.14 85.092C7.112 85.204 7.056 85.3347 6.972 85.484C6.89733 85.624 6.83667 85.7313 6.79 85.806C6.74333 85.8713 6.65933 85.974 6.538 86.114C6.41667 86.254 6.33267 86.3473 6.286 86.394C6.24867 86.4313 6.15533 86.5247 6.006 86.674C5.85667 86.8233 5.768 86.912 5.74 86.94L3.43 89.18V89.25H7.42V91H0.77ZM11.0784 88.55C11.5077 89.11 12.0397 89.39 12.6744 89.39C13.309 89.39 13.841 89.11 14.2704 88.55C14.6997 87.9807 14.9144 87.164 14.9144 86.1C14.9144 85.036 14.6997 84.224 14.2704 83.664C13.841 83.0947 13.309 82.81 12.6744 82.81C12.0397 82.81 11.5077 83.0947 11.0784 83.664C10.649 84.224 10.4344 85.036 10.4344 86.1C10.4344 87.164 10.649 87.9807 11.0784 88.55ZM9.77638 82.418C10.551 81.5127 11.517 81.06 12.6744 81.06C13.8317 81.06 14.7977 81.5127 15.5724 82.418C16.347 83.314 16.7344 84.5413 16.7344 86.1C16.7344 87.6587 16.347 88.8907 15.5724 89.796C14.7977 90.692 13.8317 91.14 12.6744 91.14C11.517 91.14 10.551 90.692 9.77638 89.796C9.00171 88.8907 8.61438 87.6587 8.61438 86.1C8.61438 84.5413 9.00171 83.314 9.77638 82.418ZM20.4573 88.55C20.8866 89.11 21.4186 89.39 22.0533 89.39C22.6879 89.39 23.2199 89.11 23.6493 88.55C24.0786 87.9807 24.2933 87.164 24.2933 86.1C24.2933 85.036 24.0786 84.224 23.6493 83.664C23.2199 83.0947 22.6879 82.81 22.0533 82.81C21.4186 82.81 20.8866 83.0947 20.4573 83.664C20.0279 84.224 19.8133 85.036 19.8133 86.1C19.8133 87.164 20.0279 87.9807 20.4573 88.55ZM19.1553 82.418C19.9299 81.5127 20.8959 81.06 22.0533 81.06C23.2106 81.06 24.1766 81.5127 24.9513 82.418C25.7259 83.314 26.1133 84.5413 26.1133 86.1C26.1133 87.6587 25.7259 88.8907 24.9513 89.796C24.1766 90.692 23.2106 91.14 22.0533 91.14C20.8959 91.14 19.9299 90.692 19.1553 89.796C18.3806 88.8907 17.9933 87.6587 17.9933 86.1C17.9933 84.5413 18.3806 83.314 19.1553 82.418ZM29.8362 88.55C30.2655 89.11 30.7975 89.39 31.4322 89.39C32.0669 89.39 32.5989 89.11 33.0282 88.55C33.4575 87.9807 33.6722 87.164 33.6722 86.1C33.6722 85.036 33.4575 84.224 33.0282 83.664C32.5989 83.0947 32.0669 82.81 31.4322 82.81C30.7975 82.81 30.2655 83.0947 29.8362 83.664C29.4069 84.224 29.1922 85.036 29.1922 86.1C29.1922 87.164 29.4069 87.9807 29.8362 88.55ZM28.5342 82.418C29.3089 81.5127 30.2749 81.06 31.4322 81.06C32.5895 81.06 33.5555 81.5127 34.3302 82.418C35.1049 83.314 35.4922 84.5413 35.4922 86.1C35.4922 87.6587 35.1049 88.8907 34.3302 89.796C33.5555 90.692 32.5895 91.14 31.4322 91.14C30.2749 91.14 29.3089 90.692 28.5342 89.796C27.7595 88.8907 27.3722 87.6587 27.3722 86.1C27.3722 84.5413 27.7595 83.314 28.5342 82.418ZM39.2151 88.55C39.6444 89.11 40.1764 89.39 40.8111 89.39C41.4458 89.39 41.9778 89.11 42.4071 88.55C42.8364 87.9807 43.0511 87.164 43.0511 86.1C43.0511 85.036 42.8364 84.224 42.4071 83.664C41.9778 83.0947 41.4458 82.81 40.8111 82.81C40.1764 82.81 39.6444 83.0947 39.2151 83.664C38.7858 84.224 38.5711 85.036 38.5711 86.1C38.5711 87.164 38.7858 87.9807 39.2151 88.55ZM37.9131 82.418C38.6878 81.5127 39.6538 81.06 40.8111 81.06C41.9684 81.06 42.9344 81.5127 43.7091 82.418C44.4838 83.314 44.8711 84.5413 44.8711 86.1C44.8711 87.6587 44.4838 88.8907 43.7091 89.796C42.9344 90.692 41.9684 91.14 40.8111 91.14C39.6538 91.14 38.6878 90.692 37.9131 89.796C37.1384 88.8907 36.7511 87.6587 36.7511 86.1C36.7511 84.5413 37.1384 83.314 37.9131 82.418Z" fill="#787878"/>
<path d="M2.38 117V110H0.35V108.25H1.96C2.24 108.25 2.38 108.11 2.38 107.83V107.2H4.2V117H2.38ZM8.344 114.55C8.77333 115.11 9.30533 115.39 9.94 115.39C10.5747 115.39 11.1067 115.11 11.536 114.55C11.9653 113.981 12.18 113.164 12.18 112.1C12.18 111.036 11.9653 110.224 11.536 109.664C11.1067 109.095 10.5747 108.81 9.94 108.81C9.30533 108.81 8.77333 109.095 8.344 109.664C7.91467 110.224 7.7 111.036 7.7 112.1C7.7 113.164 7.91467 113.981 8.344 114.55ZM7.042 108.418C7.81667 107.513 8.78267 107.06 9.94 107.06C11.0973 107.06 12.0633 107.513 12.838 108.418C13.6127 109.314 14 110.541 14 112.1C14 113.659 13.6127 114.891 12.838 115.796C12.0633 116.692 11.0973 117.14 9.94 117.14C8.78267 117.14 7.81667 116.692 7.042 115.796C6.26733 114.891 5.88 113.659 5.88 112.1C5.88 110.541 6.26733 109.314 7.042 108.418ZM17.7229 114.55C18.1522 115.11 18.6842 115.39 19.3189 115.39C19.9536 115.39 20.4856 115.11 20.9149 114.55C21.3442 113.981 21.5589 113.164 21.5589 112.1C21.5589 111.036 21.3442 110.224 20.9149 109.664C20.4856 109.095 19.9536 108.81 19.3189 108.81C18.6842 108.81 18.1522 109.095 17.7229 109.664C17.2936 110.224 17.0789 111.036 17.0789 112.1C17.0789 113.164 17.2936 113.981 17.7229 114.55ZM16.4209 108.418C17.1956 107.513 18.1616 107.06 19.3189 107.06C20.4762 107.06 21.4422 107.513 22.2169 108.418C22.9916 109.314 23.3789 110.541 23.3789 112.1C23.3789 113.659 22.9916 114.891 22.2169 115.796C21.4422 116.692 20.4762 117.14 19.3189 117.14C18.1616 117.14 17.1956 116.692 16.4209 115.796C15.6462 114.891 15.2589 113.659 15.2589 112.1C15.2589 110.541 15.6462 109.314 16.4209 108.418ZM27.1018 114.55C27.5311 115.11 28.0631 115.39 28.6978 115.39C29.3325 115.39 29.8645 115.11 30.2938 114.55C30.7231 113.981 30.9378 113.164 30.9378 112.1C30.9378 111.036 30.7231 110.224 30.2938 109.664C29.8645 109.095 29.3325 108.81 28.6978 108.81C28.0631 108.81 27.5311 109.095 27.1018 109.664C26.6725 110.224 26.4578 111.036 26.4578 112.1C26.4578 113.164 26.6725 113.981 27.1018 114.55ZM25.7998 108.418C26.5745 107.513 27.5405 107.06 28.6978 107.06C29.8551 107.06 30.8211 107.513 31.5958 108.418C32.3705 109.314 32.7578 110.541 32.7578 112.1C32.7578 113.659 32.3705 114.891 31.5958 115.796C30.8211 116.692 29.8551 117.14 28.6978 117.14C27.5405 117.14 26.5745 116.692 25.7998 115.796C25.0251 114.891 24.6378 113.659 24.6378 112.1C24.6378 110.541 25.0251 109.314 25.7998 108.418ZM36.4807 114.55C36.9101 115.11 37.4421 115.39 38.0767 115.39C38.7114 115.39 39.2434 115.11 39.6727 114.55C40.1021 113.981 40.3167 113.164 40.3167 112.1C40.3167 111.036 40.1021 110.224 39.6727 109.664C39.2434 109.095 38.7114 108.81 38.0767 108.81C37.4421 108.81 36.9101 109.095 36.4807 109.664C36.0514 110.224 35.8367 111.036 35.8367 112.1C35.8367 113.164 36.0514 113.981 36.4807 114.55ZM35.1787 108.418C35.9534 107.513 36.9194 107.06 38.0767 107.06C39.2341 107.06 40.2001 107.513 40.9747 108.418C41.7494 109.314 42.1367 110.541 42.1367 112.1C42.1367 113.659 41.7494 114.891 40.9747 115.796C40.2001 116.692 39.2341 117.14 38.0767 117.14C36.9194 117.14 35.9534 116.692 35.1787 115.796C34.4041 114.891 34.0167 113.659 34.0167 112.1C34.0167 110.541 34.4041 109.314 35.1787 108.418Z" fill="#787878"/>
<path d="M69.5 112C71.8333 101.667 77 82.0001 79 86.0001C81.5 91.0001 89 113 91.5 108.5C94 104 116.5 77.0001 121.5 80.0001C126.5 83.0001 136.5 102 143.5 100C150.5 98.0001 175.5 50.5001 180 54.0001C184.5 57.5001 185.5 74.0001 196 66.5001C206.5 59.0001 217 35.0001 228.5 49.0001C240 63.0001 263 67.0001 271 63.0001C279 59.0001 305 36.0002 314 45.0001C321.2 52.2001 349.333 92.6668 362.5 112" stroke="#A915C8" stroke-width="3"/>
<path d="M69.5 95C71.5 92.5 113 -2.00002 120 11.5C127 25 148.5 98.0001 158.5 65.5001C168.5 33.0001 183.5 -5.99994 191.5 7.50006C199.5 21.0001 213.5 101 224.5 95C235.5 89 245 33.4999 257 49.5C269 65.5001 285 124.5 300 95C315 65.5001 337.5 53.5001 342 65.5001C345.6 75.1 357.167 100.5 362.5 112" stroke="#F9585E" stroke-width="3"/>
<path d="M69.5 112C69.1666 69 70.5 -10.7 78.5 14.5C88.5 46 110.5 92.5 123 77C135.5 61.5 140 31.5 147.5 42C155 52.5 183 104.5 202.5 92.5C222 80.5 284.5 23.5 292.5 34.5C300.5 45.5 319.5 -2.49997 326.5 14.5C332.1 28.1 352.833 67.8333 362.5 86" stroke="#DDA1E9" stroke-width="3"/>
</svg>
