<svg width="344" height="140" viewBox="0 0 344 140" fill="none" xmlns="http://www.w3.org/2000/svg">
<path d="M49 8H343" stroke="#EAEAEA"/>
<path d="M49 34H343" stroke="#EAEAEA"/>
<path d="M49 60H343" stroke="#EAEAEA"/>
<path d="M49 86H343" stroke="#EAEAEA"/>
<path d="M49 112H343" stroke="#EAEAEA"/>
<path d="M50.12 137V127.2H57.82V137H56.7V128.25H51.24V137H50.12ZM60.0595 137V127.2H61.1795V131.54H66.6395V127.2H67.7595V137H66.6395V132.59H61.1795V137H60.0595Z" fill="#272727"/>
<path d="M96.787 137V127.2H100.987C101.724 127.2 102.35 127.466 102.863 127.998C103.386 128.521 103.647 129.165 103.647 129.93C103.647 130.546 103.47 131.078 103.115 131.526C102.975 131.703 102.802 131.871 102.597 132.03V132.1C102.83 132.231 103.026 132.389 103.185 132.576C103.586 133.033 103.787 133.598 103.787 134.27C103.787 135.035 103.526 135.684 103.003 136.216C102.49 136.739 101.864 137 101.127 137H96.787ZM97.907 131.61H100.987C101.407 131.61 101.766 131.451 102.065 131.134C102.373 130.807 102.527 130.406 102.527 129.93C102.527 129.454 102.373 129.057 102.065 128.74C101.766 128.413 101.407 128.25 100.987 128.25H97.907V131.61ZM97.907 135.95H101.127C101.547 135.95 101.906 135.791 102.205 135.474C102.513 135.147 102.667 134.746 102.667 134.27C102.667 133.794 102.513 133.397 102.205 133.08C101.906 132.753 101.547 132.59 101.127 132.59H97.907V135.95ZM107.919 137V128.25H104.699V127.2H112.259V128.25H109.039V137H107.919Z" fill="#272727"/>
<path d="M147.873 133.78H149.063C148.783 134.816 148.251 135.637 147.467 136.244C146.692 136.841 145.778 137.14 144.723 137.14C143.407 137.14 142.296 136.669 141.391 135.726C140.486 134.783 140.033 133.575 140.033 132.1C140.033 130.625 140.486 129.417 141.391 128.474C142.296 127.531 143.407 127.06 144.723 127.06C145.768 127.06 146.683 127.359 147.467 127.956C148.251 128.544 148.783 129.342 149.063 130.35H147.873C147.63 129.65 147.229 129.104 146.669 128.712C146.109 128.311 145.46 128.11 144.723 128.11C143.724 128.11 142.88 128.483 142.189 129.23C141.498 129.967 141.153 130.924 141.153 132.1C141.153 133.276 141.498 134.237 142.189 134.984C142.88 135.721 143.724 136.09 144.723 136.09C145.46 136.09 146.109 135.889 146.669 135.488C147.229 135.077 147.63 134.508 147.873 133.78ZM150.68 137V127.2H154.95C155.724 127.2 156.382 127.489 156.924 128.068C157.474 128.637 157.75 129.351 157.75 130.21C157.75 131.069 157.474 131.787 156.924 132.366C156.382 132.935 155.724 133.22 154.95 133.22H151.8V137H150.68ZM151.8 132.17H154.95C155.416 132.17 155.813 131.988 156.14 131.624C156.466 131.26 156.63 130.789 156.63 130.21C156.63 129.631 156.466 129.16 156.14 128.796C155.813 128.432 155.416 128.25 154.95 128.25H151.8V132.17Z" fill="#272727"/>
<path d="M193.07 137V132.8C192.846 132.987 192.594 133.141 192.314 133.262C191.661 133.561 191.003 133.71 190.34 133.71C189.173 133.71 188.31 133.425 187.75 132.856C187.19 132.287 186.91 131.405 186.91 130.21V127.2H188.03V130.21C188.03 131.05 188.217 131.671 188.59 132.072C188.973 132.464 189.556 132.66 190.34 132.66C191.115 132.66 191.787 132.497 192.356 132.17C192.608 132.039 192.846 131.876 193.07 131.68V127.2H194.19V137H193.07ZM198.881 137V128.25H195.661V127.2H203.221V128.25H200.001V137H198.881Z" fill="#272727"/>
<path d="M231.787 137V127.2H239.487V137H238.367V128.25H232.907V137H231.787ZM244.176 137V128.25H240.956V127.2H248.516V128.25H245.296V137H244.176Z" fill="#272727"/>
<path d="M284.873 133.78H286.063C285.783 134.816 285.251 135.637 284.467 136.244C283.692 136.841 282.778 137.14 281.723 137.14C280.407 137.14 279.296 136.669 278.391 135.726C277.486 134.783 277.033 133.575 277.033 132.1C277.033 130.625 277.486 129.417 278.391 128.474C279.296 127.531 280.407 127.06 281.723 127.06C282.768 127.06 283.683 127.359 284.467 127.956C285.251 128.544 285.783 129.342 286.063 130.35H284.873C284.63 129.65 284.229 129.104 283.669 128.712C283.109 128.311 282.46 128.11 281.723 128.11C280.724 128.11 279.88 128.483 279.189 129.23C278.498 129.967 278.153 130.924 278.153 132.1C278.153 133.276 278.498 134.237 279.189 134.984C279.88 135.721 280.724 136.09 281.723 136.09C282.46 136.09 283.109 135.889 283.669 135.488C284.229 135.077 284.63 134.508 284.873 133.78ZM287.68 137V127.2H294.26V128.25H288.8V131.4H292.09C292.836 131.4 293.466 131.661 293.98 132.184C294.493 132.707 294.75 133.379 294.75 134.2C294.75 135.021 294.493 135.693 293.98 136.216C293.466 136.739 292.836 137 292.09 137H287.68ZM288.8 135.95H292.09C292.547 135.95 292.916 135.791 293.196 135.474C293.485 135.157 293.63 134.732 293.63 134.2C293.63 133.668 293.485 133.243 293.196 132.926C292.916 132.609 292.547 132.45 292.09 132.45H288.8V135.95Z" fill="#272727"/>
<path d="M324.12 137V127.2H328.32C329.057 127.2 329.683 127.466 330.196 127.998C330.719 128.521 330.98 129.165 330.98 129.93C330.98 130.546 330.803 131.078 330.448 131.526C330.308 131.703 330.135 131.871 329.93 132.03V132.1C330.163 132.231 330.359 132.389 330.518 132.576C330.919 133.033 331.12 133.598 331.12 134.27C331.12 135.035 330.859 135.684 330.336 136.216C329.823 136.739 329.197 137 328.46 137H324.12ZM325.24 131.61H328.32C328.74 131.61 329.099 131.451 329.398 131.134C329.706 130.807 329.86 130.406 329.86 129.93C329.86 129.454 329.706 129.057 329.398 128.74C329.099 128.413 328.74 128.25 328.32 128.25H325.24V131.61ZM325.24 135.95H328.46C328.88 135.95 329.239 135.791 329.538 135.474C329.846 135.147 330 134.746 330 134.27C330 133.794 329.846 133.397 329.538 133.08C329.239 132.753 328.88 132.59 328.46 132.59H325.24V135.95ZM340.495 133.78H341.685C341.405 134.816 340.873 135.637 340.089 136.244C339.314 136.841 338.4 137.14 337.345 137.14C336.029 137.14 334.918 136.669 334.013 135.726C333.108 134.783 332.655 133.575 332.655 132.1C332.655 130.625 333.108 129.417 334.013 128.474C334.918 127.531 336.029 127.06 337.345 127.06C338.39 127.06 339.305 127.359 340.089 127.956C340.873 128.544 341.405 129.342 341.685 130.35H340.495C340.252 129.65 339.851 129.104 339.291 128.712C338.731 128.311 338.082 128.11 337.345 128.11C336.346 128.11 335.502 128.483 334.811 129.23C334.12 129.967 333.775 130.924 333.775 132.1C333.775 133.276 334.12 134.237 334.811 134.984C335.502 135.721 336.346 136.09 337.345 136.09C338.082 136.09 338.731 135.889 339.291 135.488C339.851 135.077 340.252 134.508 340.495 133.78Z" fill="#272727"/>
<path d="M2.38 13V6H0.35V4.25H1.96C2.24 4.25 2.38 4.11 2.38 3.83V3.2H4.2V13H2.38ZM8.344 10.55C8.77333 11.11 9.30533 11.39 9.94 11.39C10.5747 11.39 11.1067 11.11 11.536 10.55C11.9653 9.98067 12.18 9.164 12.18 8.1C12.18 7.036 11.9653 6.224 11.536 5.664C11.1067 5.09467 10.5747 4.81 9.94 4.81C9.30533 4.81 8.77333 5.09467 8.344 5.664C7.91467 6.224 7.7 7.036 7.7 8.1C7.7 9.164 7.91467 9.98067 8.344 10.55ZM7.042 4.418C7.81667 3.51267 8.78267 3.06 9.94 3.06C11.0973 3.06 12.0633 3.51267 12.838 4.418C13.6127 5.314 14 6.54133 14 8.1C14 9.65867 13.6127 10.8907 12.838 11.796C12.0633 12.692 11.0973 13.14 9.94 13.14C8.78267 13.14 7.81667 12.692 7.042 11.796C6.26733 10.8907 5.88 9.65867 5.88 8.1C5.88 6.54133 6.26733 5.314 7.042 4.418ZM17.7229 10.55C18.1522 11.11 18.6842 11.39 19.3189 11.39C19.9536 11.39 20.4856 11.11 20.9149 10.55C21.3442 9.98067 21.5589 9.164 21.5589 8.1C21.5589 7.036 21.3442 6.224 20.9149 5.664C20.4856 5.09467 19.9536 4.81 19.3189 4.81C18.6842 4.81 18.1522 5.09467 17.7229 5.664C17.2936 6.224 17.0789 7.036 17.0789 8.1C17.0789 9.164 17.2936 9.98067 17.7229 10.55ZM16.4209 4.418C17.1956 3.51267 18.1616 3.06 19.3189 3.06C20.4762 3.06 21.4422 3.51267 22.2169 4.418C22.9916 5.314 23.3789 6.54133 23.3789 8.1C23.3789 9.65867 22.9916 10.8907 22.2169 11.796C21.4422 12.692 20.4762 13.14 19.3189 13.14C18.1616 13.14 17.1956 12.692 16.4209 11.796C15.6462 10.8907 15.2589 9.65867 15.2589 8.1C15.2589 6.54133 15.6462 5.314 16.4209 4.418ZM27.1018 10.55C27.5311 11.11 28.0631 11.39 28.6978 11.39C29.3325 11.39 29.8645 11.11 30.2938 10.55C30.7231 9.98067 30.9378 9.164 30.9378 8.1C30.9378 7.036 30.7231 6.224 30.2938 5.664C29.8645 5.09467 29.3325 4.81 28.6978 4.81C28.0631 4.81 27.5311 5.09467 27.1018 5.664C26.6725 6.224 26.4578 7.036 26.4578 8.1C26.4578 9.164 26.6725 9.98067 27.1018 10.55ZM25.7998 4.418C26.5745 3.51267 27.5405 3.06 28.6978 3.06C29.8551 3.06 30.8211 3.51267 31.5958 4.418C32.3705 5.314 32.7578 6.54133 32.7578 8.1C32.7578 9.65867 32.3705 10.8907 31.5958 11.796C30.8211 12.692 29.8551 13.14 28.6978 13.14C27.5405 13.14 26.5745 12.692 25.7998 11.796C25.0251 10.8907 24.6378 9.65867 24.6378 8.1C24.6378 6.54133 25.0251 5.314 25.7998 4.418Z" fill="#787878"/>
<path d="M0.63 36.2H2.45C2.49667 36.4987 2.66 36.774 2.94 37.026C3.22 37.2687 3.61667 37.39 4.13 37.39C4.662 37.39 5.07267 37.25 5.362 36.97C5.66067 36.6807 5.81 36.284 5.81 35.78C5.81 35.3133 5.66067 34.9307 5.362 34.632C5.06333 34.324 4.65267 34.17 4.13 34.17C3.75667 34.17 3.43933 34.24 3.178 34.38C2.926 34.5107 2.75333 34.6507 2.66 34.8H0.798L1.358 29.2H7.07V30.95H2.94L2.73 32.84H2.8C3.136 32.6067 3.64933 32.49 4.34 32.49C5.292 32.49 6.076 32.8027 6.692 33.428C7.31733 34.044 7.63 34.828 7.63 35.78C7.63 36.7693 7.30333 37.5767 6.65 38.202C6.006 38.8273 5.166 39.14 4.13 39.14C3.53267 39.14 3.00067 39.0513 2.534 38.874C2.07667 38.6873 1.71733 38.4447 1.456 38.146C1.19467 37.8473 0.994 37.5347 0.854 37.208C0.723333 36.8813 0.648667 36.5453 0.63 36.2ZM11.2835 36.55C11.7128 37.11 12.2448 37.39 12.8795 37.39C13.5141 37.39 14.0461 37.11 14.4755 36.55C14.9048 35.9807 15.1195 35.164 15.1195 34.1C15.1195 33.036 14.9048 32.224 14.4755 31.664C14.0461 31.0947 13.5141 30.81 12.8795 30.81C12.2448 30.81 11.7128 31.0947 11.2835 31.664C10.8541 32.224 10.6395 33.036 10.6395 34.1C10.6395 35.164 10.8541 35.9807 11.2835 36.55ZM9.98145 30.418C10.7561 29.5127 11.7221 29.06 12.8795 29.06C14.0368 29.06 15.0028 29.5127 15.7775 30.418C16.5521 31.314 16.9395 32.5413 16.9395 34.1C16.9395 35.6587 16.5521 36.8907 15.7775 37.796C15.0028 38.692 14.0368 39.14 12.8795 39.14C11.7221 39.14 10.7561 38.692 9.98145 37.796C9.20679 36.8907 8.81945 35.6587 8.81945 34.1C8.81945 32.5413 9.20679 31.314 9.98145 30.418ZM20.6624 36.55C21.0917 37.11 21.6237 37.39 22.2584 37.39C22.893 37.39 23.425 37.11 23.8544 36.55C24.2837 35.9807 24.4984 35.164 24.4984 34.1C24.4984 33.036 24.2837 32.224 23.8544 31.664C23.425 31.0947 22.893 30.81 22.2584 30.81C21.6237 30.81 21.0917 31.0947 20.6624 31.664C20.233 32.224 20.0184 33.036 20.0184 34.1C20.0184 35.164 20.233 35.9807 20.6624 36.55ZM19.3604 30.418C20.135 29.5127 21.101 29.06 22.2584 29.06C23.4157 29.06 24.3817 29.5127 25.1564 30.418C25.931 31.314 26.3184 32.5413 26.3184 34.1C26.3184 35.6587 25.931 36.8907 25.1564 37.796C24.3817 38.692 23.4157 39.14 22.2584 39.14C21.101 39.14 20.135 38.692 19.3604 37.796C18.5857 36.8907 18.1984 35.6587 18.1984 34.1C18.1984 32.5413 18.5857 31.314 19.3604 30.418Z" fill="#787878"/>
<path d="M2.38 65V58H0.35V56.25H1.96C2.24 56.25 2.38 56.11 2.38 55.83V55.2H4.2V65H2.38ZM8.344 62.55C8.77333 63.11 9.30533 63.39 9.94 63.39C10.5747 63.39 11.1067 63.11 11.536 62.55C11.9653 61.9807 12.18 61.164 12.18 60.1C12.18 59.036 11.9653 58.224 11.536 57.664C11.1067 57.0947 10.5747 56.81 9.94 56.81C9.30533 56.81 8.77333 57.0947 8.344 57.664C7.91467 58.224 7.7 59.036 7.7 60.1C7.7 61.164 7.91467 61.9807 8.344 62.55ZM7.042 56.418C7.81667 55.5127 8.78267 55.06 9.94 55.06C11.0973 55.06 12.0633 55.5127 12.838 56.418C13.6127 57.314 14 58.5413 14 60.1C14 61.6587 13.6127 62.8907 12.838 63.796C12.0633 64.692 11.0973 65.14 9.94 65.14C8.78267 65.14 7.81667 64.692 7.042 63.796C6.26733 62.8907 5.88 61.6587 5.88 60.1C5.88 58.5413 6.26733 57.314 7.042 56.418ZM17.7229 62.55C18.1522 63.11 18.6842 63.39 19.3189 63.39C19.9536 63.39 20.4856 63.11 20.9149 62.55C21.3442 61.9807 21.5589 61.164 21.5589 60.1C21.5589 59.036 21.3442 58.224 20.9149 57.664C20.4856 57.0947 19.9536 56.81 19.3189 56.81C18.6842 56.81 18.1522 57.0947 17.7229 57.664C17.2936 58.224 17.0789 59.036 17.0789 60.1C17.0789 61.164 17.2936 61.9807 17.7229 62.55ZM16.4209 56.418C17.1956 55.5127 18.1616 55.06 19.3189 55.06C20.4762 55.06 21.4422 55.5127 22.2169 56.418C22.9916 57.314 23.3789 58.5413 23.3789 60.1C23.3789 61.6587 22.9916 62.8907 22.2169 63.796C21.4422 64.692 20.4762 65.14 19.3189 65.14C18.1616 65.14 17.1956 64.692 16.4209 63.796C15.6462 62.8907 15.2589 61.6587 15.2589 60.1C15.2589 58.5413 15.6462 57.314 16.4209 56.418Z" fill="#787878"/>
<path d="M0.63 88.2H2.45C2.49667 88.4987 2.66 88.774 2.94 89.026C3.22 89.2687 3.61667 89.39 4.13 89.39C4.662 89.39 5.07267 89.25 5.362 88.97C5.66067 88.6807 5.81 88.284 5.81 87.78C5.81 87.3133 5.66067 86.9307 5.362 86.632C5.06333 86.324 4.65267 86.17 4.13 86.17C3.75667 86.17 3.43933 86.24 3.178 86.38C2.926 86.5107 2.75333 86.6507 2.66 86.8H0.798L1.358 81.2H7.07V82.95H2.94L2.73 84.84H2.8C3.136 84.6067 3.64933 84.49 4.34 84.49C5.292 84.49 6.076 84.8027 6.692 85.428C7.31733 86.044 7.63 86.828 7.63 87.78C7.63 88.7693 7.30333 89.5767 6.65 90.202C6.006 90.8273 5.166 91.14 4.13 91.14C3.53267 91.14 3.00067 91.0513 2.534 90.874C2.07667 90.6873 1.71733 90.4447 1.456 90.146C1.19467 89.8473 0.994 89.5347 0.854 89.208C0.723333 88.8813 0.648667 88.5453 0.63 88.2ZM11.2835 88.55C11.7128 89.11 12.2448 89.39 12.8795 89.39C13.5141 89.39 14.0461 89.11 14.4755 88.55C14.9048 87.9807 15.1195 87.164 15.1195 86.1C15.1195 85.036 14.9048 84.224 14.4755 83.664C14.0461 83.0947 13.5141 82.81 12.8795 82.81C12.2448 82.81 11.7128 83.0947 11.2835 83.664C10.8541 84.224 10.6395 85.036 10.6395 86.1C10.6395 87.164 10.8541 87.9807 11.2835 88.55ZM9.98145 82.418C10.7561 81.5127 11.7221 81.06 12.8795 81.06C14.0368 81.06 15.0028 81.5127 15.7775 82.418C16.5521 83.314 16.9395 84.5413 16.9395 86.1C16.9395 87.6587 16.5521 88.8907 15.7775 89.796C15.0028 90.692 14.0368 91.14 12.8795 91.14C11.7221 91.14 10.7561 90.692 9.98145 89.796C9.20679 88.8907 8.81945 87.6587 8.81945 86.1C8.81945 84.5413 9.20679 83.314 9.98145 82.418Z" fill="#787878"/>
<path d="M2.38 117V110H0.35V108.25H1.96C2.24 108.25 2.38 108.11 2.38 107.83V107.2H4.2V117H2.38ZM8.344 114.55C8.77333 115.11 9.30533 115.39 9.94 115.39C10.5747 115.39 11.1067 115.11 11.536 114.55C11.9653 113.981 12.18 113.164 12.18 112.1C12.18 111.036 11.9653 110.224 11.536 109.664C11.1067 109.095 10.5747 108.81 9.94 108.81C9.30533 108.81 8.77333 109.095 8.344 109.664C7.91467 110.224 7.7 111.036 7.7 112.1C7.7 113.164 7.91467 113.981 8.344 114.55ZM7.042 108.418C7.81667 107.513 8.78267 107.06 9.94 107.06C11.0973 107.06 12.0633 107.513 12.838 108.418C13.6127 109.314 14 110.541 14 112.1C14 113.659 13.6127 114.891 12.838 115.796C12.0633 116.692 11.0973 117.14 9.94 117.14C8.78267 117.14 7.81667 116.692 7.042 115.796C6.26733 114.891 5.88 113.659 5.88 112.1C5.88 110.541 6.26733 109.314 7.042 108.418Z" fill="#787878"/>
<path d="M49.5 112L51.8554 92.1477C53.1667 81.0951 68.1873 78.7653 72.7852 88.9014V88.9014C75.7077 95.3441 83.8663 97.3897 89.4827 93.0877L92.7525 90.5832C98.1132 86.4771 105.639 86.7752 110.658 91.2924V91.2924C116.761 96.7849 126.256 95.8818 131.214 89.3373L137.469 81.0804C142.254 74.765 151.746 74.765 156.531 81.0804V81.0804C162.661 89.1728 175.451 86.4247 177.716 76.5283L185.347 43.1936C187.867 32.1856 201.335 28.002 209.649 35.6449V35.6449C216.193 41.6609 226.536 40.5455 231.646 33.2726L232.625 31.8801C239.623 21.9213 254.692 22.9429 260.281 33.755L279.958 71.8138C283.231 78.1448 291.169 80.3983 297.281 76.7315V76.7315C302.346 73.6926 308.853 74.6658 312.807 79.0533L342.5 112" stroke="#F9585E" stroke-width="3"/>
<path d="M49.5 61.5L55.0402 55.7687C76.4385 33.6325 111.295 31.7671 134.934 51.4932V51.4932C153.392 66.8965 179.372 69.5014 200.522 58.0694L203.834 56.2791C225.627 44.499 252.249 46.283 272.275 60.8655L342.5 112" stroke="#A915C8" stroke-width="3"/>
<path d="M49.5 111.5L60.715 36.0535C63.207 19.2893 82.0891 10.5985 96.4441 19.6087V19.6087C101.312 22.664 107.131 23.8291 112.799 22.8836L119.902 21.6989C136.898 18.8641 153.923 26.5829 162.99 41.2354L170.707 53.7045C188.578 82.5821 225.822 92.5882 255.759 76.5549L257.348 75.7038C277.092 65.1296 300.843 65.2501 320.478 76.0242L342.5 88.1074" stroke="#DDA1E9" stroke-width="3"/>
</svg>
