<svg width="550" height="237" viewBox="0 0 550 237" fill="none" xmlns="http://www.w3.org/2000/svg">
<path d="M57.72 105.4V148H38.52V105.4H9.24L0 91.12H88.68V105.4H57.72ZM166.309 148H97.0688V133.72H166.309V148ZM97.0688 91.12H165.709V105.4H97.0688V91.12ZM145.189 125.32H97.0688V112.6H145.189V125.32ZM237.8 91.12H261.92L231.92 117.4L268.64 148H241.4L219.44 128.8C213.32 134.68 205.16 142.24 199.28 148H174.92L207.2 118.84C197.24 110.44 183.44 99.04 174.08 91.12H200.84L219.8 107.8L237.8 91.12ZM322.798 105.4V148H303.598V105.4H274.318L265.078 91.12H353.758V105.4H322.798ZM424.667 105.4H362.147V91.12H443.987V148H362.147V115.24H381.467V133.72H424.667V105.4ZM516.706 91.12H540.826L510.826 117.4L547.546 148H520.306L498.346 128.8C492.226 134.68 484.066 142.24 478.186 148H453.826L486.106 118.84C476.146 110.44 462.346 99.04 452.986 91.12H479.746L498.706 107.8L516.706 91.12Z" fill="#12002A"/>
<path d="M155.52 112.449L152.027 118.5L155.52 124.551L209.77 218.514L213.263 224.565L220.25 224.565L328.75 224.565L335.737 224.565L339.23 218.514L393.48 124.551L396.973 118.5L393.48 112.449L339.23 18.4856L335.737 12.4351L328.75 12.4351L220.25 12.4351L213.263 12.4351L209.77 18.4857L155.52 112.449Z" stroke="url(#paint0_linear_32_321)" stroke-width="24.2023"/>
<g clip-path="url(#clip0_32_321)">
<path d="M57.72 105.4V148H38.52V105.4H9.24L0 91.12H88.68V105.4H57.72ZM166.309 148H97.0688V133.72H166.309V148ZM97.0688 91.12H165.709V105.4H97.0688V91.12ZM145.189 125.32H97.0688V112.6H145.189V125.32ZM237.8 91.12H261.92L231.92 117.4L268.64 148H241.4L219.44 128.8C213.32 134.68 205.16 142.24 199.28 148H174.92L207.2 118.84C197.24 110.44 183.44 99.04 174.08 91.12H200.84L219.8 107.8L237.8 91.12ZM322.798 105.4V148H303.598V105.4H274.318L265.078 91.12H353.758V105.4H322.798ZM424.667 105.4H362.147V91.12H443.987V148H362.147V115.24H381.467V133.72H424.667V105.4ZM516.706 91.12H540.826L510.826 117.4L547.546 148H520.306L498.346 128.8C492.226 134.68 484.066 142.24 478.186 148H453.826L486.106 118.84C476.146 110.44 462.346 99.04 452.986 91.12H479.746L498.706 107.8L516.706 91.12Z" fill="#12002A"/>
</g>
<defs>
<linearGradient id="paint0_linear_32_321" x1="208.297" y1="245.915" x2="383" y2="-1.55934" gradientUnits="userSpaceOnUse">
<stop stop-color="#A915C8"/>
<stop offset="1" stop-color="#F9585E"/>
</linearGradient>
<clipPath id="clip0_32_321">
<rect width="194" height="135" fill="white" transform="translate(356 51)"/>
</clipPath>
</defs>
</svg>
